<svg width="97" height="39" viewBox="0 0 97 39" fill="none" xmlns="http://www.w3.org/2000/svg">
<path d="M78.3032 1.09375C78.0948 1.19629 77.7538 1.60644 77.5833 1.95507C76.8823 3.34961 76.9392 3.43164 83.6458 10.6914L89.803 17.3564L45.7173 17.459C-2.91533 17.582 1.08213 17.459 0.456935 18.8535C0.0780286 19.7353 0.248536 20.5967 0.987403 21.2529L1.55576 21.7656L45.6794 21.7656C69.9483 21.7656 89.803 21.8271 89.803 21.9092C89.803 21.9912 86.9991 25.1084 83.5511 28.8408C77.9054 34.9727 77.2991 35.6904 77.2991 36.2852C77.2991 37.6797 78.1327 38.582 79.421 38.582C79.9515 38.582 80.8987 37.6387 88.1737 29.8047C92.6638 24.9854 96.4339 20.8633 96.5665 20.6377C96.8886 20.084 96.8696 19.4072 96.5475 18.7305C96.2065 18.0537 80.785 1.40136 80.1977 1.07324C79.6862 0.806637 78.8526 0.806637 78.3032 1.09375Z" fill="#4285F4"/>
</svg>
