<svg width="152" height="162" viewBox="0 0 152 162" fill="none" xmlns="http://www.w3.org/2000/svg">
<path d="M73.5736 145.363C72.7618 144.967 72.4384 144.396 69.2439 137.421C65.8226 129.956 63.7615 124.957 61.6241 118.995C59.0715 111.802 56.5064 102.413 56.5989 100.628C56.681 99.0432 58.4682 97.6478 59.8584 98.0729C61.3228 98.5271 66.5278 103.689 69.5491 107.679L71.3195 110.015L71.3962 105.127C71.435 102.43 71.4707 95.9005 71.4915 90.6309C71.4973 73.4824 71.7109 65.953 72.4048 54.9936C73.1169 43.6821 73.6572 39.095 75.2403 30.9305C76.3396 25.288 78.1116 18.3438 78.6802 17.5914C79.1959 16.8868 80.1144 16.6822 81.0293 17.0322C82.0674 17.4391 82.3262 18.2847 81.9505 20.1819C81.3245 23.5035 80.418 30.2909 79.6299 37.7148C78.5974 47.421 77.7997 65.7389 77.4206 87.6596C77.2846 96.1261 77.1277 104.995 77.0807 107.363C77.0292 110.79 77.0842 111.676 77.3435 111.538C77.5248 111.446 79.8913 109.577 82.6044 107.347C88.7132 102.367 89.2106 102.015 90.1663 102.064C91.2227 102.119 92.4862 103.042 92.6457 103.857C92.905 105.182 91.3528 112.264 89.4833 118.169C86.9484 126.208 83.5367 133.648 78.6271 141.766C77.2193 144.114 76.4617 145.109 75.9443 145.359C75.1451 145.696 74.3376 145.705 73.5736 145.363ZM79.9709 127.511C81.9886 123.127 84.0727 117.46 85.0492 113.702C85.3355 112.557 85.5372 111.584 85.4895 111.531C85.4418 111.478 83.4946 113.042 81.1493 114.988C78.804 116.935 76.7046 118.515 76.4782 118.504C76.2519 118.492 75.7623 118.694 75.3958 118.952C74.9249 119.281 74.3386 119.402 73.5337 119.36C72.075 119.284 71.2099 118.458 71.0327 117.011C70.9473 116.225 70.4066 115.466 67.3527 112.105C65.3972 109.935 63.7716 108.212 63.7664 108.312C63.7612 108.413 64.2138 109.899 64.7539 111.642C66.4408 117.051 68.9242 123.635 71.989 130.679L74.9159 137.463L76.4491 134.642C77.2857 133.097 78.8649 129.875 79.9709 127.511Z" fill="#4285F4"/>
</svg>
