<svg width="12" height="11" viewBox="0 0 12 11" fill="none" xmlns="http://www.w3.org/2000/svg">
<path d="M10.3013 0.921242C10.0639 0.990051 9.72333 1.26185 9.17974 1.81576C8.51917 2.49009 7.63841 3.45686 7.14643 4.04518C6.64412 4.64382 5.2817 6.50511 4.56264 7.57509C4.30805 7.95354 4.18075 8.10836 4.0913 8.15997C3.93304 8.24598 3.90551 8.22534 3.62684 7.84689C3.13141 7.176 2.33667 6.11633 2.20249 5.95807C1.86876 5.5521 1.5488 5.49017 1.06026 5.72756C0.912315 5.79981 0.743733 5.90991 0.685245 5.96839C0.592353 6.06817 0.582031 6.10257 0.582031 6.29868C0.582031 6.49823 0.602674 6.55327 0.812542 6.97301C1.11186 7.57853 1.39398 8.01547 1.99262 8.81021C2.87682 9.98685 3.46514 10.6199 3.84703 10.8057C4.07066 10.9158 4.31493 10.9295 4.47663 10.8435C4.67274 10.7438 4.91701 10.4203 5.31266 9.73226C5.89754 8.72076 6.55123 7.76087 7.77259 6.12666C8.71184 4.86745 9.29327 4.16559 9.99857 3.43622C10.7417 2.66555 11.0789 2.25958 11.127 2.08412C11.2027 1.81232 11.1408 1.513 10.9585 1.24809C10.7589 0.955646 10.5456 0.848992 10.3013 0.921242Z" fill="#232323"/>
</svg>
