<svg width="11" height="11" viewBox="0 0 11 11" fill="none" xmlns="http://www.w3.org/2000/svg">
<path d="M10.0474 0.921241C9.81003 0.990049 9.46942 1.26185 8.92583 1.81576C8.26526 2.49009 7.38451 3.45686 6.89252 4.04518C6.39021 4.64382 5.02779 6.50511 4.30874 7.57509C4.05414 7.95354 3.92684 8.10836 3.83739 8.15997C3.67913 8.24598 3.65161 8.22534 3.37293 7.84688C2.87751 7.176 2.08276 6.11633 1.94858 5.95807C1.61486 5.5521 1.29489 5.49017 0.806349 5.72756C0.658409 5.79981 0.489827 5.90991 0.431339 5.96839C0.338446 6.06817 0.328125 6.10257 0.328125 6.29868C0.328125 6.49822 0.348768 6.55327 0.558636 6.97301C0.857956 7.57853 1.14007 8.01547 1.73871 8.81021C2.62291 9.98685 3.21123 10.6199 3.59312 10.8057C3.81675 10.9158 4.06102 10.9295 4.22272 10.8435C4.41883 10.7438 4.6631 10.4203 5.05876 9.73226C5.64363 8.72076 6.29732 7.76087 7.51868 6.12666C8.45793 4.86745 9.03937 4.16559 9.74466 3.43622C10.4878 2.66555 10.825 2.25958 10.8731 2.08412C10.9488 1.81232 10.8869 1.513 10.7045 1.24808C10.505 0.955645 10.2917 0.84899 10.0474 0.921241Z" fill="white"/>
</svg>
