<svg width="26" height="26" viewBox="0 0 26 26" fill="none" xmlns="http://www.w3.org/2000/svg">
<path d="M11.8799 0.979527C9.46222 1.21444 7.23053 2.10516 5.27292 3.61252C4.31858 4.34663 3.08038 5.72675 2.36585 6.85238C2.05753 7.33689 1.45556 8.57019 1.24022 9.15747C1.00042 9.81328 0.741032 10.8214 0.613787 11.5996C0.462071 12.5539 0.462071 14.3647 0.613787 15.3191C0.834018 16.6698 1.1815 17.7563 1.77367 18.9651C2.41969 20.2816 3.09017 21.2164 4.16686 22.298C5.24845 23.3747 6.18321 24.0452 7.49971 24.6912C8.70854 25.2833 9.79501 25.6308 11.1458 25.8511C12.1001 26.0028 13.9109 26.0028 14.8652 25.8511C16.216 25.6308 17.3025 25.2833 18.5113 24.6912C19.8278 24.0452 20.7626 23.3747 21.8441 22.298C22.9208 21.2164 23.5913 20.2816 24.2373 18.9651C24.668 18.0891 24.8834 17.5165 25.1183 16.6356C25.4266 15.461 25.5 14.8199 25.5 13.4593C25.5 12.0988 25.4266 11.4577 25.1183 10.2831C24.8834 9.40218 24.668 8.82957 24.2373 7.95354C23.5913 6.63704 22.9208 5.70228 21.8441 4.6207C20.7626 3.54401 19.8278 2.87352 18.5113 2.22751C17.3074 1.63533 16.1915 1.28296 14.8897 1.07741C14.1703 0.964844 12.565 0.911011 11.8799 0.979527ZM19.5586 8.08568C19.8033 8.16398 20.1802 8.53104 20.2829 8.80021C20.4004 9.11343 20.3906 9.51963 20.2536 9.80349C20.097 10.1216 12.0414 18.1185 11.6792 18.3191C11.3268 18.5051 10.9157 18.5051 10.5634 18.3142C10.3578 18.2066 6.64814 14.8835 6.01681 14.2424C5.76721 13.9928 5.64486 13.6894 5.64976 13.337C5.65955 12.598 6.20278 12.0988 6.93689 12.1477C7.11308 12.1624 7.32841 12.2065 7.41161 12.2554C7.54375 12.319 10.0152 14.5458 10.8179 15.3142L11.0479 15.5393L14.7086 11.8835C16.7201 9.8769 18.433 8.19824 18.5211 8.1542C18.8588 7.9829 19.1622 7.96333 19.5586 8.08568Z" fill="#67BE7E"/>
</svg>
