<svg width="30" height="22" viewBox="0 0 30 22" fill="none" xmlns="http://www.w3.org/2000/svg">
<path d="M2.20434 0.993848C2.03442 1.03916 1.87016 1.10147 1.83617 1.13545C1.77387 1.19775 14.0762 13.5397 14.3368 13.6813C14.535 13.7833 15.0221 13.7833 15.2204 13.6813C15.4809 13.5397 27.7832 1.19775 27.7209 1.13545C27.687 1.10147 27.5114 1.03916 27.3245 0.993848C27.0243 0.914551 25.6366 0.903223 14.7502 0.908887C4.15278 0.908887 2.47621 0.920215 2.20434 0.993848Z" fill="white"/>
<path d="M0.408594 2.66953C0.312305 2.95273 0.306641 3.36621 0.306641 11.0977C0.306641 18.8291 0.312305 19.2426 0.408594 19.5201C0.465234 19.6844 0.533203 19.8203 0.550195 19.8203C0.572852 19.8203 2.55527 17.8549 4.95117 15.459L9.3125 11.0977L4.95117 6.73633C2.55527 4.33477 0.572852 2.375 0.550195 2.375C0.533203 2.375 0.465234 2.51094 0.408594 2.66953Z" fill="white"/>
<path d="M24.6055 6.73633L20.2441 11.0977L24.6055 15.459C27.0014 17.8549 28.9838 19.8203 29.0064 19.8203C29.0234 19.8203 29.0914 19.6844 29.148 19.5201C29.2443 19.2426 29.25 18.8291 29.25 11.0977C29.25 3.36621 29.2443 2.95273 29.148 2.66953C29.0914 2.51094 29.0234 2.375 29.0064 2.375C28.9838 2.375 27.0014 4.33477 24.6055 6.73633Z" fill="white"/>
<path d="M6.11287 16.6768C3.30916 19.4805 1.80252 21.0268 1.8365 21.0607C1.87048 21.0947 2.04607 21.157 2.23298 21.2023C2.53318 21.2816 3.92654 21.293 14.7789 21.293C25.6312 21.293 27.0246 21.2816 27.3248 21.2023C27.5117 21.157 27.6873 21.0947 27.7213 21.0607C27.7552 21.0268 26.2486 19.4805 23.4336 16.6654L19.0892 12.3211L17.7412 13.6521C16.5064 14.8756 16.3535 15.0059 15.9457 15.2098L15.4926 15.4307H14.7789H14.0652L13.6121 15.2098C13.2043 15.0059 13.0457 14.8699 11.8279 13.6635C11.0972 12.9385 10.4855 12.3437 10.4685 12.3437C10.4572 12.3437 8.49744 14.2922 6.11287 16.6768Z" fill="white"/>
</svg>
