<svg width="234" height="50" viewBox="0 0 234 50" fill="none" xmlns="http://www.w3.org/2000/svg">
<path d="M2.3664 15.0599C0.820402 15.6558 0.0501692 17.3921 0.646037 18.9381C1.2419 20.4841 2.97823 21.2543 4.52423 20.6585L2.3664 15.0599ZM233.524 22.2957L199.348 16.6339L211.533 49.0614L233.524 22.2957ZM4.52423 20.6585C37.5077 7.94575 58.3631 5.29189 73.0832 7.43258C87.6777 9.55502 96.6299 16.4309 105.909 23.9973C115.179 31.5572 124.866 39.9097 140.467 43.3843C156.03 46.8503 177.079 45.4061 209.219 34.6308L207.312 28.942C175.676 39.5484 155.829 40.6586 141.772 37.5278C127.753 34.4057 119.097 27.0103 109.7 19.3474C100.311 11.691 90.2712 3.86905 73.9466 1.49503C57.7476 -0.860743 35.7572 2.19024 2.3664 15.0599L4.52423 20.6585Z" fill="#86B3FF"/>
</svg>
