<svg width="53" height="48" viewBox="0 0 53 48" fill="none" xmlns="http://www.w3.org/2000/svg">
<path d="M47.7139 28.1661C47.5432 28.4155 47.3381 28.4946 44.8718 29.2102C42.2319 29.9768 40.4754 30.414 38.3965 30.8293C35.8892 31.3216 32.6546 31.7104 32.0678 31.5921C31.5472 31.4872 31.1728 30.827 31.3818 30.3875C31.604 29.9248 33.5687 28.4546 35.0381 27.6499L35.8986 27.1782L34.2836 26.913C33.3927 26.7678 31.2322 26.4357 29.4882 26.1702C23.8101 25.3269 21.3274 24.8868 17.7324 24.1193C14.0217 23.3286 12.5293 22.9246 9.90341 21.9998C8.08894 21.359 5.87642 20.4315 5.65519 20.2063C5.44717 20.001 5.42448 19.6868 5.58528 19.401C5.77093 19.0772 6.06364 19.033 6.67342 19.2505C7.74262 19.6207 9.94565 20.2539 12.3653 20.8791C15.5287 21.6972 21.5552 22.8601 28.7953 24.0611C31.5921 24.5216 34.5212 25.0086 35.303 25.1404C36.4353 25.3256 36.7313 25.3508 36.6983 25.2582C36.6769 25.1937 36.1739 24.3183 35.5686 23.3105C34.2195 21.0434 34.1271 20.8614 34.1904 20.5473C34.2604 20.2002 34.628 19.8271 34.9058 19.8143C35.3572 19.7934 37.626 20.6549 39.4897 21.5637C42.0275 22.7975 44.3235 24.2922 46.7708 26.3162C47.4793 26.8976 47.7715 27.1973 47.8291 27.3809C47.9014 27.6621 47.8647 27.9299 47.7139 28.1661ZM42.1166 25.1719C40.7638 24.2886 38.9894 23.3205 37.7931 22.8128C37.428 22.6618 37.1156 22.5473 37.0958 22.5605C37.0759 22.5736 37.4981 23.2951 38.0276 24.1672C38.557 25.0394 38.9775 25.8121 38.9625 25.8865C38.9475 25.9609 38.9903 26.1329 39.0579 26.2669C39.1436 26.439 39.1549 26.6391 39.1016 26.9035C39.005 27.3829 38.6888 27.6287 38.2011 27.6165C37.9366 27.6062 37.6586 27.7479 36.3958 28.5943C35.5816 29.1354 34.9311 29.5891 34.9642 29.5958C34.9972 29.6024 35.5116 29.5255 36.1152 29.4321C37.9889 29.1389 40.2911 28.6397 42.7738 27.9704L45.1639 27.334L44.3051 26.6879C43.8344 26.3351 42.845 25.6541 42.1166 25.1719Z" fill="#686868"/>
</svg>
