<svg width="30" height="30" viewBox="0 0 30 30" fill="none" xmlns="http://www.w3.org/2000/svg">
<path d="M2.06326 0.677172C1.16267 0.892406 0.48865 1.6344 0.324392 2.57463C0.239431 3.07307 0.33572 5.11213 0.505642 6.36389C1.20799 11.5295 3.19607 16.0381 6.57185 20.1106C7.17791 20.8412 9.03572 22.699 9.76638 23.3051C13.8388 26.6809 18.3474 28.669 23.5131 29.3713C24.7762 29.5412 26.8039 29.6375 27.308 29.5526C28.2652 29.3883 29.0185 28.6746 29.2168 27.7401C29.2564 27.5418 29.2791 26.4883 29.2791 24.5965C29.2791 21.5606 29.2678 21.4076 28.9902 20.8696C28.8373 20.5637 28.4635 20.1615 28.1746 19.9973C27.7441 19.7424 27.4666 19.6801 26.532 19.6291C24.7705 19.5272 23.6433 19.3459 22.2273 18.9381C21.508 18.7285 21.3947 18.7115 20.9189 18.7342C20.4658 18.7512 20.3582 18.7795 20.0297 18.9494C19.8201 19.0571 18.8912 19.7254 17.9566 20.4391C17.022 21.1471 16.2347 21.7248 16.2121 21.7248C16.1385 21.7248 15.0453 21.0848 14.3826 20.66C11.9357 19.0684 10.0666 17.069 8.54861 14.3955C8.2031 13.7951 8.1408 13.6535 8.19744 13.5686C8.23142 13.5119 8.82615 12.719 9.51717 11.8071C10.2082 10.8895 10.8369 10.0399 10.9049 9.91526C10.9785 9.78498 11.0804 9.52444 11.1314 9.32619C11.2447 8.86741 11.2107 8.57287 10.9275 7.56467C10.5367 6.17131 10.3441 4.94221 10.2762 3.42991C10.2365 2.55764 10.1515 2.13284 9.93064 1.75334C9.61345 1.21526 8.98474 0.767797 8.37869 0.654516C7.93123 0.569555 2.42576 0.586547 2.06326 0.677172Z" fill="white"/>
</svg>
