<svg width="40" height="35" viewBox="0 0 40 35" fill="none" xmlns="http://www.w3.org/2000/svg">
<path d="M37.5513 0.808083C37.3429 0.86211 33.3602 2.40579 28.7137 4.22734C24.0672 6.04888 16.0787 9.18255 10.9614 11.1893C5.84405 13.1961 1.46772 14.9328 1.22845 15.0563C0.765342 15.2878 0.263645 15.7818 0.186461 16.0905C0.0629667 16.5999 0.418013 17.2483 1.05092 17.6574C1.48315 17.9275 10.066 20.8605 10.2821 20.8065C10.3516 20.791 15.4535 17.5725 21.6205 13.6592C27.7798 9.746 32.9202 6.51199 33.0437 6.46568C33.337 6.36534 33.7384 6.41936 33.8387 6.57373C34.0548 6.92878 34.4716 6.53514 20.3624 19.2165C16.0015 23.1297 15.685 23.4307 15.8085 23.5465C15.878 23.616 19.1351 26.1167 23.0407 29.1038C28.3432 33.1559 30.2419 34.5684 30.5275 34.6687C31.091 34.8617 31.7547 34.8463 32.2256 34.6224C32.5883 34.4526 33.1518 33.9355 33.3293 33.5959C33.4219 33.4338 39.6738 1.99672 39.6738 1.73429C39.6661 1.41012 39.3882 0.954731 39.1104 0.823517C38.7862 0.669147 38.0916 0.66143 37.5513 0.808083Z" fill="white"/>
</svg>
