<svg width="11" height="17" viewBox="0 0 11 17" fill="none" xmlns="http://www.w3.org/2000/svg">
<path d="M7.19969 8.51293L1.0285 2.57031C0.905167 2.46215 0.805619 2.33127 0.735751 2.1854C0.665883 2.03954 0.627114 1.88166 0.62174 1.72111C0.616367 1.56056 0.644497 1.4006 0.704466 1.25071C0.764436 1.10081 0.855025 0.964025 0.970872 0.848446C1.08672 0.732867 1.22547 0.640845 1.37891 0.577825C1.53234 0.514805 1.69735 0.482069 1.86416 0.481554C2.03098 0.48104 2.1962 0.512758 2.35005 0.574831C2.50391 0.636904 2.64326 0.72807 2.75988 0.842932L2.79025 0.872183L9.844 7.66306C10.0778 7.88826 10.2092 8.19367 10.2092 8.51212C10.2092 8.83057 10.0778 9.13598 9.844 9.36118L2.79194 16.1521C2.67815 16.2655 2.54227 16.3562 2.39206 16.4191C2.24185 16.4819 2.08026 16.5157 1.91651 16.5184C1.75276 16.5211 1.59006 16.4927 1.43769 16.4349C1.28533 16.3771 1.14629 16.2909 1.0285 16.1813C0.91072 16.0717 0.816503 15.9409 0.751233 15.7962C0.685962 15.6516 0.650916 15.496 0.648096 15.3383C0.645275 15.1806 0.674735 15.0239 0.734794 14.8772C0.794852 14.7305 0.884334 14.5966 0.998128 14.4832L1.0285 14.4539L7.19969 8.51293Z" fill="#4285F4" stroke="#4285F4" stroke-width="0.5"/>
</svg>
