<svg width="43" height="42" viewBox="0 0 43 42" fill="none" xmlns="http://www.w3.org/2000/svg">
<path d="M20.2471 0.715294C17.096 1.01389 14.7205 1.6918 12.1409 3.00724C8.2062 5.02481 5.03067 8.2287 3.06332 12.167C2.30413 13.6761 1.95311 14.6042 1.5531 16.0891C1.06331 17.9614 0.916366 19.0993 0.908203 21.1653C0.908203 22.1983 0.94902 23.312 1.00616 23.7478C1.45514 27.0566 2.50005 29.9054 4.25516 32.5686L4.84292 33.4644L3.54495 37.2493C2.82658 39.3395 2.25515 41.0504 2.27148 41.0666C2.2878 41.0827 4.0674 40.5339 6.23884 39.848C8.41028 39.162 10.2144 38.5971 10.2552 38.5971C10.2878 38.5971 10.6225 38.7827 10.998 39.0167C11.3736 39.2427 12.1572 39.6623 12.7368 39.9367C18.0185 42.4304 24.0512 42.6483 29.4553 40.5259C35.5778 38.129 40.2798 32.8753 41.9615 26.5643C42.4758 24.6275 42.5982 23.5703 42.5982 21.3267C42.5982 19.0832 42.4758 18.026 41.9615 16.0891C39.9859 8.6887 33.9859 2.93461 26.4104 1.18337C25.1369 0.892838 23.8144 0.739506 22.2063 0.715294C21.3083 0.699154 20.4267 0.699154 20.2471 0.715294ZM15.2675 10.2866C15.4062 10.3592 15.594 10.5529 15.6919 10.7305C15.9287 11.1582 17.9205 15.8793 17.9777 16.1698C18.0511 16.533 17.6838 17.1544 16.8756 18.0583C16.0266 19.0025 15.8471 19.3011 15.9205 19.64C16.0593 20.2534 17.945 22.7309 19.1124 23.8204C20.9165 25.5071 23.643 27.1131 24.8593 27.2019C25.4879 27.2422 25.7083 27.0727 26.6716 25.8138C27.1042 25.2408 27.5614 24.6678 27.7002 24.5387C28.0104 24.2239 28.4757 24.1594 29.0063 24.3531C29.6757 24.6032 33.7818 26.5805 34.0757 26.7984L34.3533 27.0001L34.3043 27.8556C34.19 30.0507 33.4063 31.1886 31.3492 32.1812C29.39 33.1254 27.8553 33.1012 24.8593 32.0763C20.8267 30.6963 18.696 29.3808 15.7981 26.4998C14.345 25.0633 13.3164 23.8446 12.1409 22.1741C10.198 19.4302 9.45518 17.3077 9.67559 15.153C9.85519 13.4259 10.4674 12.1508 11.7001 10.9322C12.296 10.3431 13.0715 10.101 14.247 10.1413C14.745 10.1575 15.1124 10.2059 15.2675 10.2866Z" fill="white"/>
</svg>
