<svg width="41" height="40" viewBox="0 0 41 40" fill="none" xmlns="http://www.w3.org/2000/svg">
<path d="M0.560689 39.928L3.2403 30.0773C1.47465 27.0493 0.547005 23.6054 0.552761 20.0997C0.552761 9.1486 9.42601 0.271484 20.3724 0.271484C31.3188 0.271484 40.192 9.1486 40.192 20.0997C40.192 31.0509 31.3188 39.928 20.3724 39.928C16.8698 39.9337 13.4289 39.0063 10.4031 37.2413L0.560689 39.928ZM13.2195 10.7963C12.9635 10.8122 12.7134 10.8797 12.4842 10.9946C12.2692 11.1164 12.0729 11.2687 11.9015 11.4467C11.6637 11.6707 11.5289 11.8651 11.3842 12.0534C10.6517 13.0072 10.2577 14.1779 10.2644 15.3806C10.2683 16.3522 10.522 17.298 10.9184 18.1823C11.7291 19.9709 13.0629 21.8645 14.8249 23.6193C15.249 24.0416 15.6633 24.4659 16.1092 24.8605C18.2961 26.7867 20.9021 28.1759 23.7199 28.9174L24.8477 29.0899C25.2143 29.1097 25.581 29.0819 25.9496 29.0641C26.5269 29.0343 27.0905 28.8779 27.6006 28.6061C27.8602 28.4723 28.1135 28.3268 28.3597 28.1698C28.3597 28.1698 28.4449 28.1143 28.6075 27.9914C28.875 27.7931 29.0395 27.6523 29.2615 27.4203C29.426 27.2498 29.5687 27.0495 29.6777 26.8215C29.8323 26.4983 29.9869 25.8817 30.0503 25.3681C30.0979 24.9755 30.084 24.7614 30.0781 24.6285C30.0701 24.4164 29.8938 24.1963 29.7015 24.1031L28.548 23.5855C28.548 23.5855 26.8237 22.8341 25.7713 22.3542C25.6603 22.3058 25.5414 22.2783 25.4205 22.2729C25.2849 22.259 25.1478 22.2742 25.0186 22.3177C24.8894 22.3611 24.771 22.4317 24.6713 22.5247V22.5208C24.6614 22.5208 24.5286 22.6338 23.0956 24.3707C23.0134 24.4813 22.9001 24.5649 22.7702 24.6108C22.6403 24.6567 22.4997 24.6629 22.3663 24.6285C22.2371 24.594 22.1106 24.5502 21.9877 24.4976C21.7419 24.3945 21.6567 24.3549 21.4882 24.2815L21.4783 24.2776C20.3445 23.7823 19.2947 23.1133 18.3667 22.2947C18.1169 22.0766 17.885 21.8387 17.6472 21.6087C16.8675 20.8616 16.1879 20.0165 15.6256 19.0944L15.5087 18.9061C15.4247 18.7795 15.3568 18.643 15.3065 18.4996C15.2312 18.2081 15.4274 17.9742 15.4274 17.9742C15.4274 17.9742 15.909 17.4467 16.133 17.1612C16.3195 16.9239 16.4934 16.677 16.6542 16.4216C16.8881 16.0449 16.9614 15.6582 16.8386 15.3588C16.2836 14.0026 15.7088 12.6522 15.1182 11.3119C15.0013 11.0462 14.6544 10.8558 14.3393 10.8181C14.2323 10.8062 14.1252 10.7943 14.0182 10.7864C13.7521 10.7732 13.4853 10.7758 13.2195 10.7943V10.7963Z" fill="#4285F4"/>
</svg>
