<svg width="26" height="24" viewBox="0 0 26 24" fill="none" xmlns="http://www.w3.org/2000/svg">
<path d="M11.9939 0.0463085C9.55251 0.243183 7.26247 1.10568 5.28493 2.56818C4.7527 2.96662 3.5906 4.08225 3.17556 4.59318C1.04665 7.24631 0.157978 10.4572 0.646259 13.7338C0.958759 15.7963 1.81325 17.7182 3.18044 19.4057C3.57595 19.8979 4.69899 20.9854 5.18239 21.351C7.93142 23.4229 11.2273 24.3041 14.655 23.8776C16.8572 23.6057 19.0008 22.7244 20.8123 21.3557C21.2859 20.9994 22.3748 19.9541 22.7459 19.4994C24.1716 17.7651 25.0701 15.7307 25.3826 13.5463C25.4949 12.7541 25.4949 11.2447 25.3826 10.4572C25.1873 9.07444 24.8406 7.98225 24.2058 6.726C22.5457 3.44943 19.3963 1.07756 15.6609 0.285372C14.6062 0.0603714 13.0486 -0.0380669 11.9939 0.0463085ZM8.94704 5.53537C9.11306 5.60568 9.65505 6.09787 11.0857 7.46662L12.9998 9.29944L14.9187 7.46662C16.9695 5.49787 17.0476 5.43694 17.5164 5.43694C17.9265 5.43694 18.1267 5.5635 18.9129 6.32287C19.7039 7.07756 19.8357 7.26975 19.8357 7.6635C19.8357 8.1135 19.7722 8.1885 17.7215 10.1572L15.8123 11.9994L17.7215 13.8369C19.7722 15.8104 19.8357 15.8854 19.8357 16.3354C19.8357 16.7291 19.7039 16.9213 18.9129 17.676C18.1267 18.4354 17.9265 18.5619 17.5164 18.5619C17.0476 18.5619 16.9695 18.501 14.9187 16.5322L12.9998 14.6994L11.0857 16.5322C9.03005 18.501 8.95192 18.5619 8.48317 18.5619C8.08767 18.5619 7.907 18.4401 7.08181 17.6432C6.26638 16.851 6.16384 16.7057 6.16384 16.326C6.16872 15.8854 6.23708 15.801 8.2781 13.8369L10.1873 11.9994L8.2781 10.1572C6.85231 8.7885 6.33962 8.26819 6.26638 8.10881C6.14431 7.85568 6.13454 7.5135 6.23708 7.27444C6.33962 7.04006 7.78005 5.64318 8.04372 5.526C8.30251 5.40881 8.66872 5.4135 8.94704 5.53537Z" fill="#FF8484"/>
</svg>
