<svg width="89" height="88" viewBox="0 0 89 88" fill="none" xmlns="http://www.w3.org/2000/svg">
<path d="M42.4621 0.549997C42.3762 0.859371 42.1184 1.89062 41.8949 2.81875C41.3793 4.95 40.9668 5.44843 39.2824 5.99844C38.6293 6.20469 37.409 6.68594 36.584 7.04687C35.759 7.425 34.9168 7.73437 34.7277 7.73437C34.3496 7.73437 33.284 7.20156 31.2215 5.96406L29.898 5.17344L28.2996 6.68594L26.7184 8.19843L27.9559 10.2437C29.4512 12.7187 29.5027 13.1312 28.609 14.9187C28.2996 15.5547 27.8184 16.6719 27.5605 17.4109C26.8902 19.2844 26.4777 19.6109 24.0027 20.1781C22.9371 20.4359 21.923 20.6766 21.7684 20.7281C21.4934 20.8141 21.459 21.0547 21.459 22.6187V24.4062H27.4746H33.4902V22.9281C33.4902 21.0547 33.8512 19.4906 34.659 17.9094C36.6699 13.9734 40.4684 11.6359 44.834 11.6359C48.0309 11.6359 50.4371 12.65 52.7574 14.9531C55.0949 17.2734 56.0059 19.2844 56.1434 22.4641L56.2293 24.4062H62.2105H68.209V22.6359V20.8656L65.923 20.3156C64.4793 19.9547 63.4652 19.6109 63.173 19.3703C62.8637 19.1125 62.5027 18.4766 62.1246 17.4453C61.8152 16.5859 61.3168 15.4172 61.0074 14.8328C60.1996 13.2 60.2512 12.7875 61.6777 10.4156C62.348 9.31562 62.8809 8.35312 62.8809 8.26719C62.8809 8.06094 59.9762 5.32812 59.7527 5.32812C59.6668 5.32812 58.7387 5.84375 57.7074 6.4625C56.6762 7.08125 55.5762 7.63125 55.2496 7.68281C54.8027 7.75156 54.3043 7.61406 53.1184 7.08125C52.259 6.68593 51.0902 6.20469 50.4887 6.01562C48.5637 5.3625 48.3918 5.13906 47.6699 2.25156L47.1371 0.0859337L44.8684 0.0343704L42.6168 -0.0171909L42.4621 0.549997Z" fill="#86B3FF" fill-opacity="0.41"/>
<path d="M42.5821 17.0672C40.829 17.8062 39.7634 18.8031 39.0243 20.4187C38.5946 21.3812 38.3368 23.1687 38.5431 23.9594L38.6462 24.4062H44.8337H51.0212L51.1243 23.9594C51.1931 23.7188 51.1931 23.0141 51.1415 22.4125C50.9696 20.2125 49.5259 18.1844 47.4462 17.2219C46.0368 16.5687 43.9399 16.5 42.5821 17.0672Z" fill="#86B3FF" fill-opacity="0.41"/>
<path d="M8.1043 29.975L7.62305 30.3875L7.57148 50.8578L7.53711 71.3281H18.7434C25.6012 71.3281 30.2074 71.3969 30.5855 71.5C31.548 71.775 32.0293 72.4625 33.1121 75.1094L34.1262 77.6016L44.7996 77.6531L55.4559 77.6875L56.4699 75.1609C57.5527 72.4453 57.9996 71.8094 59.0652 71.5C59.4777 71.3969 63.7574 71.3281 70.9246 71.3281H82.1309L82.0965 50.8578L82.0449 30.3875L81.5637 29.975L81.0824 29.5625H44.834H8.58555L8.1043 29.975ZM51.8809 39.4109C51.8809 39.4281 49.9559 44.4297 47.6012 50.5312L43.3215 61.6172L40.984 61.6687L38.6465 61.7203L38.8012 61.325C39.798 58.7812 46.673 40.9406 46.9309 40.2531L47.2574 39.3594H49.5777C50.8496 39.3594 51.8809 39.3766 51.8809 39.4109ZM35.8965 45.1516V47.5234L31.7027 49.6375C29.4168 50.7891 27.4059 51.8375 27.234 51.9578C26.9934 52.1297 27.5949 52.4906 31.4277 54.3984L35.8965 56.6328V58.9875C35.8965 60.2937 35.8449 61.3594 35.7762 61.3422C35.6902 61.3422 32.3215 59.6234 28.248 57.5266L20.8574 53.6938V52.0953V50.4797L28.248 46.6641C32.3215 44.55 35.6902 42.8312 35.7762 42.8141C35.8449 42.7969 35.8965 43.8625 35.8965 45.1516ZM61.5059 46.6984L68.8105 50.4453L68.8621 52.0781L68.8965 53.7109L61.4371 57.5266C57.3293 59.6406 53.9262 61.3594 53.8746 61.3594C53.823 61.3594 53.7715 60.2937 53.7715 58.9875V56.6328L58.2402 54.3984C60.698 53.1781 62.709 52.1297 62.709 52.0781C62.709 52.0266 60.698 50.9781 58.2402 49.7578L53.7715 47.5234V45.1516C53.7715 43.2953 53.823 42.7797 53.9949 42.8484C54.098 42.9 57.484 44.6359 61.5059 46.6984Z" fill="#4285F4"/>
<path d="M0.833984 81.6578V86.8312L1.41836 87.4156L2.00273 88H44.834H87.6652L88.2496 87.4156L88.834 86.8312V81.6578V76.4844H75.1012H61.3684L60.5777 78.4609C59.3746 81.4688 59.1168 81.95 58.498 82.3281C57.948 82.6719 57.6902 82.6719 44.8168 82.6719C32.0809 82.6719 31.6684 82.6547 31.1355 82.3281C30.4996 81.95 30.2418 81.4688 29.1074 78.5813L28.2652 76.4844H14.5496H0.833984V81.6578Z" fill="#4285F4"/>
</svg>
