<svg width="89" height="88" viewBox="0 0 89 88" fill="none" xmlns="http://www.w3.org/2000/svg">
<path d="M43.2 2.97344C41.5328 3.54062 40.2437 4.65781 39.5219 6.1875C38.8859 7.54531 38.8859 9.64219 39.5219 11C40.1406 12.3234 40.8453 13.0797 42.1172 13.7672C43.1312 14.3172 43.3031 14.3516 44.8328 14.3516C46.3625 14.3516 46.5344 14.3172 47.5484 13.7672C48.8203 13.0797 49.525 12.3234 50.1437 11C50.7797 9.64219 50.7797 7.54531 50.1437 6.1875C49.1812 4.15938 47.325 2.92188 45.1078 2.80156C44.4031 2.78438 43.5953 2.85312 43.2 2.97344Z" fill="#4285F4"/>
<path d="M28.8315 11.9798C26.2878 13.2861 26.1503 16.8954 28.6081 18.322C31.1519 19.8173 34.1597 18.1158 34.1769 15.1595C34.1769 13.1486 32.544 11.5158 30.5159 11.5158C30.0347 11.5158 29.4331 11.6876 28.8315 11.9798Z" fill="#86B3FF" fill-opacity="0.41"/>
<path d="M57.7246 11.7904C56.3496 12.392 55.4902 13.6982 55.4902 15.2107C55.4902 18.1154 58.5324 19.817 61.059 18.3216C62.7777 17.3076 63.3449 15.0388 62.2793 13.3201C61.334 11.7904 59.2887 11.1029 57.7246 11.7904Z" fill="#86B3FF" fill-opacity="0.41"/>
<path d="M42.152 18.1156C38.4395 18.9578 35.2083 21.5016 33.5583 24.8359C32.6301 26.7437 32.252 28.1875 32.2176 30.0094C32.2004 31.2469 32.252 31.4703 32.6817 32.1234C33.627 33.55 36.0504 34.7016 39.5051 35.3375C40.7426 35.5781 42.0145 35.6469 44.8333 35.6641C48.0129 35.6641 48.8036 35.6125 50.4879 35.2687C53.8911 34.5812 56.0567 33.5328 56.9848 32.1062C57.4145 31.4703 57.4661 31.2469 57.4489 30.0094C57.4145 28.1703 57.0364 26.7437 56.0567 24.75C55.3864 23.3922 55.0254 22.8766 53.7879 21.6562C52.0692 19.9719 50.9348 19.25 48.8379 18.5109C47.5489 18.0641 47.0161 17.9953 45.2629 17.9438C43.9223 17.8922 42.8395 17.9609 42.152 18.1156Z" fill="#4285F4"/>
<path d="M29.3634 21.1752C27.2665 21.4158 24.8087 23.0314 23.6572 24.9221C23.1244 25.8158 22.6775 27.2252 22.5744 28.4283C22.4884 29.2877 22.5228 29.5799 22.815 30.0268C23.5369 31.1611 25.8228 32.0549 28.5556 32.2611L30.0681 32.3643L29.9306 31.8658C29.7072 31.0924 29.8275 28.5658 30.1197 27.2596C30.4806 25.6955 31.2712 23.7705 32.0275 22.6018C32.354 22.0689 32.629 21.5705 32.629 21.4846C32.629 21.158 30.9103 20.9861 29.3634 21.1752Z" fill="#86B3FF" fill-opacity="0.41"/>
<path d="M58.4121 21.0893C57.484 21.1752 57.0371 21.2955 57.0371 21.4846C57.0371 21.5705 57.3121 22.0689 57.6387 22.6018C58.3949 23.7705 59.1684 25.6955 59.5465 27.2596C59.8559 28.5658 59.959 31.0752 59.7355 31.8658L59.598 32.3643L61.1105 32.2611C63.8434 32.0549 66.1293 31.1611 66.8512 30.0268C67.1434 29.5627 67.1777 29.2877 67.0918 28.3939C66.834 25.5924 65.184 23.1861 62.6574 21.9143C61.3855 21.2783 59.7871 20.9689 58.4121 21.0893Z" fill="#86B3FF" fill-opacity="0.41"/>
<path d="M10.4917 24.1828C10.2854 24.2344 9.80417 24.5437 9.44323 24.8875C8.56667 25.7125 8.3948 26.5375 8.84167 27.6375C9.59792 29.4594 11.7979 29.7859 13.1901 28.2906C13.5854 27.8609 13.6885 27.8438 15.3901 27.8438H17.1604V34.7188V41.5938H18.3635H19.5667V33.9625C19.5667 26.7094 19.5495 26.3141 19.2401 25.9359C18.9307 25.5406 18.8104 25.5234 16.1807 25.4719L13.4651 25.4203L12.9323 24.9047C12.6401 24.6297 12.1417 24.3203 11.8151 24.2344C11.2135 24.0625 11.162 24.0625 10.4917 24.1828Z" fill="#4285F4"/>
<path d="M77.7652 24.2344C77.4902 24.3203 77.0262 24.6297 76.734 24.9047L76.2012 25.4203L73.4855 25.4719C70.8559 25.5234 70.7355 25.5406 70.4262 25.9359C70.1168 26.3141 70.0996 26.7094 70.0996 33.9625V41.5938H71.3027H72.5059V34.7188V27.8438H74.2762C75.9777 27.8438 76.0809 27.8609 76.4762 28.2906C77.3871 29.2703 78.8137 29.5109 79.8621 28.875C80.4465 28.5141 81.0824 27.3797 81.0996 26.675C81.1168 25.1109 79.2777 23.7703 77.7652 24.2344Z" fill="#4285F4"/>
<path d="M4.88975 32.3812C3.65225 33.1203 3.27412 34.4781 3.92725 35.75C4.32256 36.5234 5.30225 37.125 6.17881 37.125C6.8835 37.125 7.846 36.6609 8.17256 36.1625C8.41319 35.7844 8.55069 35.75 9.78819 35.75H11.146V38.6719V41.5938H12.3491H13.5522V37.8984C13.5522 34.5125 13.5179 34.1687 13.2257 33.8766C12.9679 33.6187 12.521 33.5328 10.6476 33.4297C8.68819 33.3266 8.36162 33.2578 8.20694 32.9828C7.96631 32.5359 6.81475 31.9687 6.12725 31.9687C5.81787 31.9687 5.25069 32.1578 4.88975 32.3812Z" fill="#4285F4"/>
<path d="M82.2684 32.3297C81.9074 32.5016 81.5465 32.8109 81.4605 32.9828C81.3059 33.2578 80.9793 33.3266 79.0199 33.4297C77.1465 33.5328 76.6996 33.6188 76.4418 33.8766C76.1496 34.1688 76.1152 34.5125 76.1152 37.8984V41.5938H77.3184H78.5215V38.6719V35.75H79.8793C81.1168 35.75 81.2543 35.7844 81.4949 36.1625C81.8215 36.6609 82.784 37.125 83.4887 37.125C84.8121 37.125 86.084 35.8531 86.084 34.5297C86.084 33.275 84.7434 31.9516 83.4887 31.9688C83.1621 31.9859 82.6121 32.1406 82.2684 32.3297Z" fill="#4285F4"/>
<path d="M3.65187 44.2406C3.60031 44.3781 3.58312 45.5125 3.61749 46.7844C3.66906 48.8812 3.70343 49.1219 4.08156 49.6547C4.59718 50.3766 5.66281 50.8578 6.74562 50.875C9.83937 50.8922 12.9331 52.9203 14.4112 55.9109C16.0956 59.3141 15.5972 63.1297 13.1222 65.9828C12.6753 66.4984 12.2456 67.1172 12.1597 67.3406C11.9362 67.9422 11.9706 69.0594 12.2456 69.575C12.6237 70.2797 18.8972 76.45 19.4472 76.6562C20.0487 76.8625 20.9597 76.8797 21.4925 76.6734C21.7159 76.5875 22.3347 76.1578 22.8503 75.7109C25.8066 73.15 29.6909 72.7031 33.18 74.5422C35.9816 76.0031 37.9409 79.1312 37.9581 82.0875C37.9753 83.1703 38.4566 84.2359 39.1784 84.7516L39.7628 85.1641H44.8331H49.9034L50.4878 84.7516C51.2269 84.2188 51.6909 83.1703 51.7081 82.0703C51.7253 77.4984 56.0737 73.3734 60.8691 73.3906C62.9144 73.3906 65.1487 74.2672 66.8159 75.7109C67.3316 76.1578 67.9503 76.5875 68.1737 76.6734C68.7066 76.8797 69.6175 76.8625 70.2191 76.6562C70.855 76.4156 77.1112 70.1937 77.4206 69.4891C77.6956 68.8531 77.73 67.925 77.5066 67.3406C77.4206 67.1172 76.9909 66.4984 76.5441 65.9828C75.5816 64.8828 74.6362 63.0094 74.3956 61.7203C73.3816 56.3234 77.6441 50.8922 82.9206 50.875C84.0034 50.8578 85.0691 50.3766 85.5847 49.6547C85.98 49.1047 85.9972 48.9328 85.9972 46.5781V44.0859H75.5128H65.0284L64.9253 45.4609C64.5472 50.4969 62.33 55.1203 58.6519 58.6094C50.5909 66.2578 37.9066 65.9141 30.2237 57.8187C26.8722 54.2953 24.9644 49.7922 24.6722 44.7734L24.6378 44.0859L14.1878 44.0344C5.25031 44 3.73781 44.0344 3.65187 44.2406Z" fill="#4285F4"/>
<path d="M30.4479 44.2752C30.2932 44.6877 30.5339 46.5268 30.912 47.9361C32.2354 52.6971 36.1026 56.5471 41.0011 57.9564C42.9432 58.5236 46.7245 58.5236 48.6667 57.9564C51.537 57.1314 54.2354 55.3611 56.0229 53.1611C57.8964 50.8064 59.1167 47.7643 59.1682 45.2893L59.1854 44.0861L44.8682 44.0346C31.9948 44.0002 30.5511 44.0174 30.4479 44.2752Z" fill="#4285F4"/>
</svg>
