<svg width="89" height="88" viewBox="0 0 89 88" fill="none" xmlns="http://www.w3.org/2000/svg">
<g clip-path="url(#clip0_270_273)">
<path d="M63.6536 1.82207C62.1755 2.18301 60.0614 3.26582 58.3943 4.48613C57.6036 5.07051 55.1114 7.39082 52.8255 9.62519C50.5568 11.8768 48.5286 13.7846 48.3224 13.9049C48.1161 14.008 47.7896 14.0939 47.5833 14.0939C47.3943 14.0939 41.7052 12.5814 34.9677 10.7424C21.3896 7.02988 21.2693 7.0127 19.1208 7.73457C18.1239 8.07832 16.388 9.22988 16.4224 9.52207C16.4396 9.60801 21.4755 12.2033 27.6286 15.2971C33.7989 18.3908 38.9724 21.0549 39.1443 21.2096C39.5739 21.6049 39.7114 22.2064 39.5224 22.7393C39.4193 22.9799 38.5255 24.0455 37.5286 25.1111C35.088 27.6893 32.7161 30.6627 29.2443 35.5268C26.2708 39.7033 25.7552 40.2189 24.638 40.2189C24.3974 40.2189 22.9193 39.8924 21.3552 39.5143L18.5193 38.7924L18.1068 39.1877C17.8661 39.4111 17.6771 39.6689 17.6771 39.7721C17.6771 39.8752 20.3068 42.5908 23.5208 45.8049L29.3474 51.6314L29.7943 51.2189C30.0349 50.9955 30.2239 50.6861 30.2239 50.5486C30.2239 50.3939 29.9146 48.9502 29.5021 47.3346L28.7802 44.3955L29.2099 43.5533C29.5708 42.8143 29.9661 42.4705 32.4583 40.683C38.7318 36.1971 41.3443 34.1346 44.5239 31.1439C46.0364 29.7174 46.2599 29.5627 46.8614 29.5627C47.3255 29.5627 47.6349 29.683 47.8755 29.9408C48.0818 30.1643 50.7802 35.4236 53.8911 41.6627L59.5458 52.9893L60.0958 52.2846C61.3849 50.6689 62.0036 48.4689 61.6943 46.6814C61.5911 46.0971 59.838 40.6486 57.8099 34.5471C55.7818 28.4455 54.1146 23.2033 54.1146 22.8939C54.1146 22.5846 54.2005 22.1549 54.3036 21.9486C54.4239 21.7424 55.6786 20.3674 57.1052 18.9064C62.6568 13.2002 64.6161 10.8455 65.9224 8.33613C66.988 6.23926 67.4005 4.79551 67.4177 3.09394L67.4349 1.63301L66.0599 1.59863C65.3036 1.58144 64.2208 1.68457 63.6536 1.82207Z" fill="#4285F4" fill-opacity="0.5"/>
<path d="M38.2169 6.87522C37.5638 7.52834 37.0654 8.09553 37.1169 8.14709C37.1513 8.18147 38.2169 8.49084 39.4888 8.83459C41.7748 9.45334 41.8091 9.47053 42.1357 9.12678C42.7373 8.52522 42.5654 7.97522 41.3794 6.77209C39.9357 5.32834 39.7466 5.32834 38.2169 6.87522Z" fill="#4285F4" fill-opacity="0.5"/>
<path d="M27.1137 19.2672C26.9934 19.5594 26.8902 20.1266 26.8902 20.5219L26.873 21.2266L27.6465 21.2094C28.1105 21.2094 28.8496 21.0031 29.5199 20.7109L30.6027 20.2125L29.1762 19.4906C28.3855 19.0781 27.6465 18.7516 27.5434 18.7516C27.4402 18.7344 27.2512 18.975 27.1137 19.2672Z" fill="#4285F4" fill-opacity="0.5"/>
<path d="M18.0043 26.28C17.2137 27.0706 17.4199 28.1534 18.434 28.6519C18.9324 28.8925 19.1043 28.8925 19.5683 28.7034C20.6512 28.2565 20.8746 26.8472 19.9637 26.1253C19.3277 25.6269 18.6058 25.6784 18.0043 26.28Z" fill="#4285F4" fill-opacity="0.5"/>
<path d="M59.6316 27.3969L58.8926 28.1531L59.6316 30.4047C60.0441 31.6422 60.4223 32.6562 60.4738 32.6562C60.6973 32.6562 63.3785 29.7859 63.4816 29.425C63.5676 29.1156 63.3957 28.8234 62.4332 27.8438C61.0066 26.3656 60.6973 26.3141 59.6316 27.3969Z" fill="#4285F4" fill-opacity="0.5"/>
<path d="M14.5663 29.5799C13.6897 29.9064 10.046 34.5814 8.00069 38.0189C6.746 40.1158 4.83819 44.0861 4.03037 46.2517C0.231936 56.5299 0.592874 66.258 5.06162 73.8549C7.88037 78.6674 12.3663 82.6033 18.4851 85.6627C20.6335 86.7283 21.4069 86.6939 21.9054 85.508C22.3694 84.3908 21.9913 83.9611 19.396 82.6892C11.421 78.7361 6.3335 72.4799 4.87256 64.7799C3.06787 55.258 7.21006 42.6424 15.2882 33.0861C15.9241 32.3127 16.4913 31.5049 16.5601 31.247C16.7147 30.6111 16.2507 29.8205 15.5976 29.5799C15.2882 29.4767 15.0476 29.3908 15.0304 29.408C15.0132 29.408 14.8069 29.4939 14.5663 29.5799Z" fill="#4285F4" fill-opacity="0.5"/>
<path d="M62.073 35.4408L61.5059 36.0252L62.4684 39.0158C63.0012 40.6658 63.4824 42.0924 63.5684 42.1611C63.6371 42.2471 64.1184 42.0408 64.6168 41.7142C65.1324 41.3877 66.284 40.7689 67.1949 40.3564C68.0887 39.9267 69.2918 39.2908 69.8418 38.9299C70.9934 38.208 72.5059 36.9877 72.5059 36.7986C72.5059 36.6096 69.223 35.6127 67.659 35.3205C66.9199 35.183 65.4934 35.0283 64.4793 34.9596L62.623 34.8564L62.073 35.4408Z" fill="#4285F4"/>
<path d="M74.4127 39.2219C73.0205 40.5282 71.1643 41.7485 68.2939 43.1923C67.0564 43.811 65.733 44.6016 65.3549 44.9282L64.633 45.5298L64.7361 47.0595C64.7877 48.1595 64.7361 48.9673 64.5127 49.9126C64.2377 51.2016 64.2377 51.2532 64.5471 51.4938C65.4064 52.1813 66.4205 52.6282 68.3799 53.1954C70.958 53.9516 72.2471 54.6048 73.5877 55.8423C76.4236 58.472 76.8361 61.9095 74.9627 67.0141C73.5361 70.9329 73.3127 71.6204 73.2439 72.5313C73.1064 74.3188 74.1205 75.2126 76.1314 75.0751C77.5064 74.972 78.8814 74.3704 81.2361 72.8407C82.8689 71.7923 84.5877 70.9329 86.1861 70.3657L87.0799 70.0563L87.5439 68.647C88.4549 65.8282 88.7127 64.0923 88.7299 60.8438C88.7471 58.5923 88.6611 57.4063 88.4205 56.1173C87.1314 49.1735 83.1611 43.1579 77.3174 39.2735C76.4064 38.6548 75.6158 38.1563 75.5814 38.1563C75.5471 38.1735 75.0143 38.6376 74.4127 39.2219Z" fill="#4285F4"/>
<path d="M48.4424 39.411C47.9783 40.4594 47.6861 41.6626 47.8064 41.9891C47.9439 42.3672 48.8892 42.3672 49.8002 42.0063L50.4877 41.7313L49.7314 40.2016C49.3017 39.3594 48.9064 38.6719 48.8549 38.6719C48.8033 38.6719 48.6142 38.9985 48.4424 39.411Z" fill="#A1C2FA"/>
<path d="M43.6815 43.725C42.5127 44.9625 41.0174 47.1281 40.1924 48.7953C39.5393 50.1015 39.5736 50.5656 40.3471 52.164C41.1721 53.8484 42.8049 55.3265 44.369 55.8422C44.7299 55.9625 45.9674 56.2719 47.119 56.5469C49.6283 57.114 50.9346 57.664 51.7424 58.489C53.6502 60.3969 53.5986 62.6312 51.5533 68.114C50.2986 71.4484 50.1955 72.2562 50.6424 75.075C51.1752 78.3234 51.1236 79.9219 50.419 82.689C50.3158 83.1015 50.4018 83.1703 52.1721 83.9953C53.1861 84.4765 54.3377 84.975 54.733 85.0781C55.4205 85.2844 55.4205 85.2844 56.7096 84.3219C58.2221 83.1703 60.7658 81.8297 62.5533 81.2281C64.6158 80.5406 66.9361 80.214 70.0127 80.214C72.8486 80.214 74.4127 80.3859 77.0252 80.9875L78.5377 81.3312L79.3455 80.6781C80.669 79.6125 82.8346 77.3094 83.9002 75.8484C84.433 75.0922 84.8799 74.4219 84.8799 74.3531C84.8799 74.1984 84.0377 74.6453 82.4221 75.6937C80.4627 76.9656 79.3799 77.4812 77.8674 77.8765C76.3033 78.2719 75.3236 78.289 74.069 77.9281C72.8658 77.6015 71.9033 76.9484 71.1815 76.0031C70.494 75.1094 70.219 74.164 70.219 72.7719C70.2361 71.3625 70.494 70.2969 71.5252 67.6328C72.6424 64.7281 73.0205 63.25 73.0377 61.8578C73.0549 60.2765 72.7455 59.4 71.8002 58.3687C70.8205 57.3031 69.7893 56.7703 67.2971 56.0484C65.4752 55.5156 64.1174 54.9312 63.1893 54.2781L62.708 53.9515L61.7971 54.8969C60.4049 56.3062 58.9611 56.5297 57.6549 55.4984C57.3627 55.275 56.2455 53.2469 54.5268 49.8094C52.3268 45.4094 51.8111 44.4984 51.5705 44.6015C48.2705 45.8734 46.3799 45.5469 45.2111 43.4844L44.7127 42.6078L43.6815 43.725Z" fill="#4285F4"/>
<path d="M16.9035 50.2564C16.3535 50.497 14.9441 52.2673 14.102 53.797C11.3348 58.747 11.5238 65.4845 14.5832 71.3111C16.3191 74.5939 19.0176 77.722 22.3176 80.2657C24.1566 81.6751 24.8785 82.0361 25.4973 81.8814C26.3738 81.6579 26.8723 80.5407 26.4426 79.7501C26.3395 79.5611 25.7035 78.9939 25.016 78.4954C22.8848 76.9142 21.2691 75.4189 19.9285 73.8032C16.7145 69.9361 15.2363 66.1032 15.202 61.7032C15.202 59.9673 15.2707 59.297 15.5801 58.2142C16.0957 56.4267 16.8348 54.9486 17.952 53.4876C18.4504 52.8173 18.9145 52.0782 18.966 51.8548C19.1207 51.2361 18.6566 50.4282 18.0035 50.2048C17.6941 50.1017 17.4535 50.0157 17.4363 50.0157C17.4191 50.0329 17.1957 50.1361 16.9035 50.2564Z" fill="#4285F4" fill-opacity="0.5"/>
<path d="M37.6842 56.066C37.203 58.4379 37.2373 63.3879 37.753 65.7598C38.1998 67.8566 39.1451 70.6066 39.9358 72.1879C41.4311 75.1441 44.4561 78.891 46.8451 80.7473L47.567 81.3145L47.7389 80.6613C48.0139 79.6988 47.9623 77.1551 47.653 75.4707C47.4639 74.491 47.3951 73.391 47.4467 72.1879C47.5155 70.5895 47.6014 70.1426 48.2545 68.3207C48.6498 67.1863 49.1826 65.7254 49.4061 65.0551C49.6467 64.402 49.9217 63.3363 50.0248 62.7004C50.2139 61.6348 50.1967 61.4973 49.8873 61.0676C49.3717 60.3457 48.2717 59.8816 45.6936 59.3145C42.6686 58.627 41.2076 57.9223 39.6608 56.3754C39.0248 55.7395 38.4576 55.052 38.3889 54.8457C38.1826 54.1754 38.0108 54.4676 37.6842 56.066Z" fill="#4285F4"/>
<path d="M25.3598 58.3516C23.3489 60.4141 22.6098 64.3844 23.5036 68.1312C24.1739 70.8984 25.9786 74.1812 28.0583 76.3469C28.8661 77.2062 29.0895 77.3438 29.6223 77.3438C30.4645 77.3438 31.0833 76.725 31.0833 75.8828C31.0833 75.3672 30.8942 75.0578 29.9833 74.0094C28.0411 71.7922 26.9239 69.5062 26.3395 66.6703C25.8754 64.3328 26.2192 62.4078 27.4567 60.6203C28.2301 59.4859 28.2989 58.9703 27.7317 58.3C27.3536 57.8531 27.1473 57.75 26.6145 57.75C26.0817 57.75 25.8239 57.8703 25.3598 58.3516Z" fill="#4285F4" fill-opacity="0.5"/>
<path d="M66.284 83.4455C63.9121 83.8236 60.973 84.9408 59.7871 85.9033L59.3574 86.247L60.7324 86.3673C62.6918 86.5564 66.3012 86.3501 68.2434 85.9376C70.0137 85.5767 72.1105 84.8892 73.7949 84.1158L74.8262 83.6517L74.2246 83.497C73.073 83.222 67.8824 83.1876 66.284 83.4455Z" fill="#4285F4"/>
</g>
<defs>
<clipPath id="clip0_270_273">
<rect width="88" height="88" fill="white" transform="translate(0.833984)"/>
</clipPath>
</defs>
</svg>
