<svg width="265" height="232" viewBox="0 0 265 232" fill="none" xmlns="http://www.w3.org/2000/svg">
<path d="M100.157 10.8651C99.3213 2.18668 110.079 -2.49047 115.856 4.03955L187.865 85.4375C190.448 88.3578 194.618 89.2825 198.194 87.7279L297.86 44.3968C305.856 40.9206 313.628 49.7067 309.203 57.2186L254.041 150.856C252.062 154.216 252.471 158.468 255.055 161.388L327.063 242.786C332.84 249.316 326.886 259.423 318.374 257.536L212.273 234.009C208.467 233.165 204.55 234.868 202.57 238.228L147.408 331.865C142.983 339.377 131.531 336.838 130.695 328.16L120.283 219.981C119.91 216.1 117.08 212.901 113.273 212.057L7.17225 188.531C-1.33952 186.643 -2.46338 174.966 5.53217 171.49L105.198 128.159C108.774 126.605 110.942 122.924 110.568 119.043L100.157 10.8651Z" fill="white" fill-opacity="0.15"/>
</svg>
