<svg width="290" height="43" viewBox="0 0 290 43" fill="none" xmlns="http://www.w3.org/2000/svg">
<path d="M8.088 34.0797C7.096 34.0157 6.216 33.7117 5.448 33.1677C4.712 32.6237 3.928 32.0637 3.096 31.4877C2.552 30.9437 2.12 30.3677 1.8 29.7597C1.48 29.1197 1.224 28.2877 1.032 27.2637C0.904 26.6557 0.904 25.8877 1.032 24.9597C1.16 24.0317 1.368 23.1037 1.656 22.1757C1.944 21.2157 2.216 20.4477 2.472 19.8717C2.856 18.9757 3.336 18.0157 3.912 16.9917C4.52 15.9357 5.112 14.9437 5.688 14.0157C6.296 13.0557 6.776 12.2877 7.128 11.7117C7.352 11.4877 7.448 11.3757 7.416 11.3757C7.416 11.3437 7.416 11.3277 7.416 11.3277C7.416 11.1677 7.576 10.7677 7.896 10.1277C8.248 9.45573 8.552 8.86373 8.808 8.35173C9.288 7.83973 9.56 7.42373 9.624 7.10373C9.688 6.78373 9.64 6.52773 9.48 6.33573C9.416 6.20773 9.528 5.98373 9.816 5.66373C10.104 5.34373 10.536 4.97573 11.112 4.55973C11.688 4.14373 12.344 3.72773 13.08 3.31173C13.848 2.70373 14.584 2.38373 15.288 2.35173C16.024 2.28773 16.456 2.43173 16.584 2.78373C16.584 2.87973 16.76 2.91173 17.112 2.87973C17.496 2.81573 17.928 2.73573 18.408 2.63973C18.92 2.51173 19.368 2.41573 19.752 2.35173C19.912 2.15973 20.28 2.01573 20.856 1.91973C21.464 1.79173 22.168 1.67973 22.968 1.58373C23.384 1.61573 23.784 1.63173 24.168 1.63173C24.584 1.59973 24.92 1.56773 25.176 1.53573C25.464 1.50373 25.608 1.48773 25.608 1.48773C25.832 1.42373 26.088 1.45573 26.376 1.58373C26.696 1.71173 26.984 2.06373 27.24 2.63973C27.464 3.21573 27.384 3.64773 27 3.93573C26.648 4.22373 25.816 4.44773 24.504 4.60773C23.544 4.73573 22.712 4.84773 22.008 4.94373C21.304 5.00773 20.568 5.10373 19.8 5.23173C19.032 5.32773 18.088 5.50373 16.968 5.75973C16.168 5.91973 15.512 6.11173 15 6.33573C14.488 6.52773 14.04 6.83173 13.656 7.24773C13.272 7.63173 12.84 8.19173 12.36 8.92773C12.136 9.08773 11.848 9.50373 11.496 10.1757C11.144 10.8477 10.792 11.5197 10.44 12.1917C9.544 13.4397 8.76 14.5277 8.088 15.4557C7.448 16.3517 7.192 16.8797 7.32 17.0397C7.32 17.0397 7.496 17.0877 7.848 17.1837C8.2 17.2797 8.44 17.3277 8.568 17.3277C8.888 17.1677 9.272 17.0557 9.72 16.9917C10.2 16.9277 10.584 16.8637 10.872 16.7997C12.856 16.2877 14.408 15.8877 15.528 15.5997C16.68 15.3117 17.544 15.1037 18.12 14.9757C18.728 14.8157 19.192 14.7197 19.512 14.6877C19.96 14.3357 20.392 14.2717 20.808 14.4957C21.256 14.7197 21.608 15.0717 21.864 15.5517C22.024 15.9037 22.024 16.2077 21.864 16.4637C21.736 16.7197 21.336 16.9757 20.664 17.2317C20.024 17.4877 19.064 17.7917 17.784 18.1437C16.504 18.4957 14.824 18.9597 12.744 19.5357C10.984 20.0477 9.48 20.3517 8.232 20.4477C6.984 20.5437 6.392 20.2717 6.456 19.6317C6.232 19.5037 5.976 19.6637 5.688 20.1117C5.432 20.5277 5.176 21.1037 4.92 21.8397C4.664 22.5757 4.44 23.3597 4.248 24.1917C4.088 25.0237 3.976 25.8077 3.912 26.5437C3.88 27.2477 3.928 27.7757 4.056 28.1277C4.312 28.8637 4.648 29.4557 5.064 29.9037C5.48 30.3197 6.232 30.6877 7.32 31.0077C7.96 31.0397 8.584 31.0877 9.192 31.1517C9.8 31.2157 10.488 31.0877 11.256 30.7677C13.144 30.4477 14.632 30.1117 15.72 29.7597C16.808 29.4077 17.432 29.1677 17.592 29.0397C17.848 28.9117 18.008 28.8477 18.072 28.8477C18.168 28.8157 18.296 28.7997 18.456 28.7997C18.36 28.9597 18.392 28.9757 18.552 28.8477C18.744 28.6877 19 28.4477 19.32 28.1277C19.672 27.8077 20.136 27.5037 20.712 27.2157C21.288 26.9277 21.8 26.7037 22.248 26.5437C22.728 26.3837 22.984 26.3837 23.016 26.5437C23.208 26.8637 23.176 27.3117 22.92 27.8877C22.664 28.4317 22.2 29.0397 21.528 29.7117C20.856 30.3517 19.992 30.9757 18.936 31.5837C17.24 32.4797 15.4 33.1037 13.416 33.4557C11.432 33.8397 9.656 34.0477 8.088 34.0797ZM27.7823 32.6877C27.5263 32.5917 27.2543 32.3997 26.9663 32.1117C26.6783 31.7917 26.4383 31.4237 26.2463 31.0077C26.0543 30.5917 25.9583 30.2077 25.9583 29.8557C26.1183 29.5037 26.3263 28.8957 26.5823 28.0317C26.8383 27.1357 27.1583 26.1117 27.5423 24.9597C27.7983 24.6077 27.9903 24.1917 28.1183 23.7117C28.2783 23.2317 28.4223 22.7997 28.5503 22.4157C28.8063 21.9037 29.1103 21.2477 29.4622 20.4477C29.8143 19.6157 30.1503 18.7837 30.4703 17.9517C30.8223 17.0877 31.1263 16.3677 31.3823 15.7917C31.7983 14.9277 32.1503 14.1437 32.4383 13.4397C32.7583 12.7037 33.0623 11.9677 33.3503 11.2317C33.6703 10.4957 34.0063 9.69573 34.3583 8.83173C34.7423 7.93573 35.1263 7.02373 35.5103 6.09573C35.9263 5.16773 36.2783 4.33573 36.5663 3.59973C36.8863 2.83173 37.0783 2.28773 37.1423 1.96773C37.1423 1.71173 37.1903 1.51973 37.2863 1.39173C37.4143 1.26373 37.5423 1.19973 37.6703 1.19973C37.7983 1.07173 37.9263 1.00773 38.0543 1.00773C38.1823 0.975734 38.3103 0.959734 38.4383 0.959734C38.5663 0.959734 38.8063 1.19973 39.1583 1.67973C39.5423 2.15973 39.7343 2.59173 39.7343 2.97573C39.7343 3.48773 39.4783 4.44773 38.9663 5.85573C38.4863 7.26373 37.7983 8.86373 36.9023 10.6557C35.8143 13.0237 34.9343 14.9757 34.2623 16.5117C33.5903 18.0157 33.1263 19.1517 32.8703 19.9197C32.6143 20.6557 32.5183 21.0717 32.5823 21.1677C32.5823 21.1677 32.8063 21.0717 33.2543 20.8797C33.7023 20.6557 34.1823 20.3517 34.6943 19.9677C35.0463 19.7757 35.4303 19.5357 35.8463 19.2477C36.2623 18.9597 36.6623 18.6877 37.0463 18.4317C37.4303 18.1437 37.7503 17.9677 38.0063 17.9037C38.3903 17.6477 38.7903 17.4077 39.2063 17.1837C39.6223 16.9277 39.8943 16.7357 40.0223 16.6077C40.5663 16.3517 40.9663 16.2717 41.2223 16.3677C41.5103 16.4637 41.7983 16.7037 42.0863 17.0877C42.4383 17.5037 42.5023 17.8717 42.2783 18.1917C42.0543 18.4797 41.5263 18.8797 40.6943 19.3917C40.0223 19.8077 39.2063 20.3037 38.2463 20.8797C37.3183 21.4557 36.4863 21.9677 35.7503 22.4157C35.0463 22.8637 34.6463 23.1357 34.5503 23.2317C34.5503 23.2317 34.6783 23.4717 34.9343 23.9517C35.1903 24.4317 35.4463 24.8637 35.7023 25.2477C35.9583 25.7597 36.2303 26.2397 36.5182 26.6877C36.8383 27.1037 36.9983 27.3917 36.9983 27.5517C37.3503 28.5437 37.8783 29.2637 38.5823 29.7117C39.2863 30.1597 40.0223 30.2077 40.7903 29.8557C41.4303 29.5997 41.8943 29.5197 42.1823 29.6157C42.5023 29.7117 42.7263 29.9517 42.8543 30.3357C42.9823 30.5917 43.0143 30.7837 42.9503 30.9117C42.9183 31.0077 42.7103 31.2477 42.3263 31.6317C41.7183 32.2397 41.0943 32.6237 40.4543 32.7837C39.8463 32.9437 39.2863 32.8957 38.7743 32.6397C38.2943 32.6717 37.7023 32.3677 36.9983 31.7277C36.2943 31.0557 35.2863 29.8717 33.9743 28.1757C33.9743 28.0477 33.9103 27.8717 33.7823 27.6477C33.6863 27.3917 33.5743 27.1517 33.4463 26.9277C33.3183 26.6717 33.1583 26.3997 32.9663 26.1117C32.7743 25.7917 32.6783 25.6317 32.6783 25.6317C32.6783 25.5037 32.6303 25.3597 32.5343 25.1997C32.4383 25.0397 32.3103 24.8477 32.1503 24.6237C31.6383 24.4637 31.2703 24.5597 31.0463 24.9117C30.8223 25.2637 30.5823 25.6317 30.3263 26.0157C30.1663 26.4317 29.9583 27.0237 29.7023 27.7917C29.4783 28.5277 29.2863 29.2477 29.1263 29.9517C28.9983 30.6557 28.9663 31.1357 29.0303 31.3917C29.0303 31.9037 28.9503 32.2557 28.7903 32.4477C28.6303 32.6077 28.2943 32.6877 27.7823 32.6877ZM45.0735 31.1997C44.9455 30.9437 44.7855 30.7517 44.5935 30.6237C44.4015 30.4637 44.3055 30.3197 44.3055 30.1917C44.3055 30.0637 44.2895 29.9357 44.2575 29.8077C44.2575 29.6477 44.1935 29.5037 44.0655 29.3757C43.9055 29.1837 43.9215 28.7517 44.1135 28.0797C44.3055 27.3757 44.6255 26.5277 45.0735 25.5357C45.5215 24.5117 46.0495 23.4397 46.6575 22.3197C46.9135 22.0637 47.1695 21.7277 47.4255 21.3117C47.6815 20.8957 47.8735 20.6237 48.0015 20.4957C48.0015 20.3677 48.0495 20.2557 48.1455 20.1597C48.2415 20.0317 48.3535 19.9677 48.4815 19.9677V19.6797C48.4815 19.5197 48.6255 19.2477 48.9135 18.8637C49.2335 18.4797 49.6175 18.0637 50.0655 17.6157C50.5135 17.1357 50.9775 16.6877 51.4575 16.2717C51.9375 15.8237 52.3375 15.5037 52.6575 15.3117C53.3295 14.8637 54.0175 14.5917 54.7215 14.4957C55.4575 14.3997 56.0815 14.5597 56.5935 14.9757C56.6895 15.0717 56.8495 15.2317 57.0735 15.4557C57.2975 15.6797 57.5535 15.9357 57.8415 16.2237C58.1615 16.4797 58.4815 16.7517 58.8015 17.0397L60.5775 18.6237L59.7135 21.0237C59.2975 22.3037 59.1855 23.4237 59.3775 24.3837C59.6015 25.3437 59.9215 26.1757 60.3375 26.8797C60.4975 27.2317 60.8175 27.5677 61.2975 27.8877C61.8095 28.2077 62.2895 28.3997 62.7375 28.4637C62.9935 28.4957 63.2335 28.5917 63.4575 28.7517C63.6815 28.9117 63.7935 29.1677 63.7935 29.5197C63.7935 29.8397 63.7295 30.0957 63.6015 30.2877C63.4735 30.4797 63.2495 30.6077 62.9295 30.6717C61.8735 30.7997 60.8815 30.5437 59.9535 29.9037C59.0575 29.2637 58.2255 28.2077 57.4575 26.7357C57.3295 26.5437 57.1535 26.1917 56.9295 25.6797C56.7375 25.1357 56.6255 24.7837 56.5935 24.6237C56.4655 24.7837 56.2255 25.0877 55.8735 25.5357C55.5215 25.9517 55.2495 26.2557 55.0575 26.4477C52.7855 28.7517 50.8175 30.3037 49.1535 31.1037C47.5215 31.8717 46.1615 31.9037 45.0735 31.1997ZM46.8015 28.5117C46.8015 28.7357 47.1375 28.7357 47.8095 28.5117C48.5135 28.2557 49.2655 27.8077 50.0655 27.1677C51.1535 26.2397 52.2415 25.2157 53.3295 24.0957C54.4495 22.9757 55.3455 21.9357 56.0175 20.9757L57.0735 19.2477C56.7535 18.5117 56.4015 18.0157 56.0175 17.7597C55.6655 17.4717 55.3615 17.3277 55.1055 17.3277C54.6895 17.3277 54.0655 17.7117 53.2335 18.4797C52.4335 19.2477 51.5695 20.2717 50.6415 21.5517C49.7135 22.8317 48.8335 24.2397 48.0015 25.7757C47.6815 26.4157 47.3935 27.0397 47.1375 27.6477C46.9135 28.2237 46.8015 28.5117 46.8015 28.5117ZM71.6906 32.8317C71.2426 32.7037 70.8746 32.5597 70.5866 32.3997C70.2986 32.2077 69.9146 31.9037 69.4346 31.4877C69.0506 30.9757 68.7466 30.4957 68.5226 30.0477C68.3306 29.5997 68.2026 29.0877 68.1386 28.5117C68.0746 27.9037 68.0426 27.1357 68.0426 26.2077C68.0426 25.8237 68.1066 25.2477 68.2346 24.4797C68.3946 23.7117 68.5706 22.9117 68.7626 22.0797C68.9866 21.2157 69.1786 20.4477 69.3386 19.7757C69.5306 19.1037 69.6426 18.6717 69.6746 18.4797C69.7706 18.0637 69.6106 17.8237 69.1946 17.7597C68.7786 17.6957 68.3146 17.6797 67.8026 17.7117C67.3226 17.7117 67.0026 17.6637 66.8426 17.5677C66.7146 17.5357 66.6506 17.4877 66.6506 17.4237C66.6506 17.3277 66.6506 17.2797 66.6506 17.2797C66.6506 17.1517 66.6346 17.0717 66.6026 17.0397C66.6026 16.9757 66.5546 16.8637 66.4586 16.7037C66.3946 16.5757 66.4266 16.3997 66.5546 16.1757C66.7146 15.9197 66.9706 15.7597 67.3226 15.6957C67.6106 15.6317 67.9946 15.5837 68.4746 15.5517C68.9866 15.4877 69.4986 15.3757 70.0106 15.2157C70.5226 15.0237 70.9386 14.7357 71.2586 14.3517C71.5466 13.6477 71.8826 12.8637 72.2666 11.9997C72.6506 11.1357 73.0186 10.3677 73.3706 9.69573C73.7546 8.99173 74.0106 8.55973 74.1386 8.39973C74.6826 8.11173 75.0826 7.99973 75.3386 8.06373C75.5946 8.09573 75.8826 8.36773 76.2026 8.87973C76.3626 9.10373 76.4746 9.27973 76.5386 9.40773C76.6346 9.53573 76.6506 9.72773 76.5866 9.98373C76.5226 10.2397 76.3466 10.6397 76.0586 11.1837C75.8026 11.7277 75.4026 12.5117 74.8586 13.5357C74.6986 13.8557 74.5546 14.1437 74.4266 14.3997C74.2986 14.6237 74.2346 14.7357 74.2346 14.7357C74.3626 14.7677 74.5546 14.7837 74.8106 14.7837C75.0666 14.7837 75.3866 14.7677 75.7706 14.7357C76.1226 14.6717 76.5706 14.6237 77.1146 14.5917C77.6586 14.5277 78.0906 14.5277 78.4106 14.5917C79.1466 14.5917 79.6906 14.7357 80.0426 15.0237C80.3946 15.2797 80.5866 15.7277 80.6186 16.3677C80.6826 16.7197 80.6026 16.9277 80.3786 16.9917C80.1866 17.0557 79.6586 17.0877 78.7946 17.0877C78.5066 17.0877 78.0586 17.1037 77.4506 17.1357C76.8426 17.1677 76.2026 17.1997 75.5306 17.2317C74.8906 17.2637 74.3306 17.3117 73.8506 17.3757C73.4026 17.4077 73.1786 17.4557 73.1786 17.5197C73.0826 17.5837 72.9226 17.8877 72.6986 18.4317C72.5066 18.9757 72.2986 19.5997 72.0746 20.3037C71.8826 20.9757 71.7066 21.5837 71.5466 22.1277C71.3226 23.2157 71.1466 24.3037 71.0186 25.3917C70.9226 26.4797 70.9066 27.4237 70.9706 28.2237C71.0346 29.0237 71.2106 29.5837 71.4986 29.9037C71.7866 30.1917 72.3466 30.2557 73.1786 30.0957C74.0106 29.9037 74.6826 29.5997 75.1946 29.1837C75.7706 28.7037 76.2346 28.4637 76.5866 28.4637C76.9706 28.4637 77.1786 28.6397 77.2106 28.9917C77.2746 29.3117 77.0986 29.7757 76.6826 30.3837C76.2986 30.9597 75.8186 31.4717 75.2426 31.9197C74.6666 32.3357 74.0586 32.6397 73.4186 32.8317C72.8106 32.9917 72.2346 32.9917 71.6906 32.8317ZM86.1893 33.0717C84.7813 33.0717 83.6293 32.5437 82.7333 31.4877C81.8373 30.3997 81.4053 29.0557 81.4373 27.4557C81.5013 26.3037 81.7253 25.0717 82.1093 23.7597C82.5253 22.4157 83.0693 21.1357 83.7413 19.9197C84.4133 18.6717 85.1493 17.5837 85.9493 16.6557C86.7493 15.7277 87.5813 15.0717 88.4453 14.6877C88.7653 14.5277 89.1013 14.3997 89.4532 14.3037C89.8373 14.2077 90.2213 14.1597 90.6053 14.1597C90.9573 14.1597 91.3253 14.2237 91.7093 14.3517C92.0933 14.4477 92.4133 14.5597 92.6693 14.6877C93.2133 14.9117 93.6293 15.1837 93.9173 15.5037C94.2053 15.8237 94.4613 16.3197 94.6853 16.9917C94.7813 17.5997 94.8293 18.0317 94.8293 18.2877C94.8293 18.5437 94.7493 18.9277 94.5893 19.4397C94.2053 20.5917 93.7093 21.5837 93.1013 22.4157C92.4933 23.2477 91.6773 23.9517 90.6533 24.5277C90.3973 24.6877 90.0933 24.8157 89.7413 24.9117C89.4213 24.9757 89.0853 25.0077 88.7333 25.0077C88.0933 25.0077 87.4693 24.8957 86.8613 24.6717C86.2853 24.4157 85.8213 24.0477 85.4693 23.5677L85.1333 23.1837L84.9893 23.5677C84.6693 24.4317 84.4133 25.2317 84.2213 25.9677C84.0613 26.7037 83.9813 27.3757 83.9813 27.9837C83.9813 28.3677 84.0133 28.7357 84.0773 29.0877C84.1733 29.4397 84.3013 29.7437 84.4613 29.9997C84.5893 30.1917 84.7973 30.3357 85.0853 30.4317C85.4053 30.4957 85.7413 30.5277 86.0933 30.5277C86.3173 30.5277 86.5413 30.5277 86.7653 30.5277C87.0213 30.4957 87.2613 30.4317 87.4853 30.3357C88.0293 30.1437 88.4613 29.9357 88.7812 29.7117C89.1333 29.4877 89.4853 29.2477 89.8373 28.9917L90.0293 28.8957H89.9813C90.3653 28.7037 90.7013 28.5117 90.9893 28.3197C91.3093 28.1277 91.4693 28.0317 91.4693 28.0317C91.5973 28.0317 91.7253 27.9517 91.8533 27.7917C92.1093 27.6637 92.4293 27.7117 92.8133 27.9357C93.2293 28.1597 93.4373 28.4477 93.4373 28.7997C93.4053 28.9597 93.2613 29.2157 93.0053 29.5677C92.7493 29.8877 92.4613 30.1917 92.1413 30.4797C91.8533 30.7677 91.6133 30.9277 91.4213 30.9597C91.3893 30.9917 91.2773 31.0557 91.0853 31.1517C90.8933 31.2157 90.7653 31.2797 90.7013 31.3437H90.7493C90.4613 31.7277 90.1733 31.9197 89.8853 31.9197H89.5013C89.3733 32.1437 88.9573 32.3997 88.2533 32.6877C87.5493 32.9437 86.8613 33.0717 86.1893 33.0717ZM88.3493 22.5117C88.9253 22.5117 89.4213 22.3517 89.8373 22.0317C90.2853 21.6797 90.6693 21.2957 90.9893 20.8797C91.6293 20.0157 91.9973 19.1837 92.0933 18.3837C92.2213 17.5517 92.1253 16.9757 91.8053 16.6557C91.6133 16.5597 91.4373 16.5117 91.2773 16.5117C91.1493 16.4797 90.8773 16.5277 90.4613 16.6557C90.1733 16.7197 89.7733 16.9597 89.2613 17.3757C88.7493 17.7917 88.2373 18.2557 87.7253 18.7677C87.2453 19.2797 86.8773 19.7117 86.6213 20.0637L85.9973 21.0717C86.2533 20.9757 86.4933 20.9277 86.7173 20.9277C86.9733 20.8957 87.1173 20.9117 87.1493 20.9757C87.1493 21.2637 87.1973 21.5357 87.2933 21.7917C87.4213 22.0157 87.5653 22.1917 87.7253 22.3197C87.9173 22.4477 88.1253 22.5117 88.3493 22.5117ZM99.5906 31.8237C99.4306 32.1437 99.1906 32.2397 98.8706 32.1117C98.5826 31.9837 98.3426 31.8557 98.1506 31.7277C97.9266 31.7277 97.7346 31.6637 97.5746 31.5357C97.4146 31.4077 97.3026 31.2157 97.2386 30.9597C97.1746 30.7677 97.1586 30.5437 97.1906 30.2877C97.2226 29.9997 97.2866 29.6797 97.3826 29.3277C97.5106 28.9437 97.6386 28.5277 97.7666 28.0797C98.0226 27.0237 98.1986 26.2557 98.2946 25.7757C98.3906 25.2957 98.4866 24.8797 98.5826 24.5277C98.6786 24.1757 98.8066 23.6637 98.9666 22.9917C99.2226 22.3517 99.4306 21.7277 99.5906 21.1197C99.7506 20.5117 99.9906 19.9037 100.311 19.2957C100.535 18.4637 100.807 17.6797 101.127 16.9437C101.479 16.1757 101.815 15.5357 102.135 15.0237C102.199 14.9277 102.311 14.7997 102.471 14.6397C102.663 14.4797 102.823 14.3997 102.951 14.3997C103.207 14.1437 103.431 14.0477 103.623 14.1117C103.847 14.1437 104.119 14.2877 104.439 14.5437C104.823 14.9597 104.967 15.4397 104.871 15.9837C104.807 16.5277 104.423 17.3277 103.719 18.3837C103.335 19.3757 102.983 20.2397 102.663 20.9757C102.343 21.6797 102.119 22.3517 101.991 22.9917C102.343 22.4797 102.727 22.0157 103.143 21.5997C103.591 21.1517 103.959 20.7837 104.247 20.4957C104.951 19.7917 105.527 19.2797 105.975 18.9597C106.455 18.6397 107.015 18.2717 107.655 17.8557C108.039 17.5997 108.407 17.3757 108.759 17.1837C109.111 16.9597 109.495 16.7997 109.911 16.7037C110.359 16.6077 110.839 16.6077 111.351 16.7037C111.671 16.6717 111.927 16.7677 112.119 16.9917C112.343 17.2157 112.519 17.5197 112.647 17.9037C112.775 18.2877 112.855 18.7357 112.887 19.2477C112.151 19.0877 111.495 19.1197 110.919 19.3437C110.343 19.5357 109.847 19.7757 109.431 20.0637C109.047 20.3517 108.743 20.5757 108.519 20.7357C108.039 21.0557 107.431 21.4877 106.695 22.0317C105.959 22.5437 105.223 23.1677 104.487 23.9037C103.911 24.5437 103.415 25.0877 102.999 25.5357C102.615 25.9837 102.295 26.3837 102.039 26.7357C101.815 27.0877 101.639 27.4557 101.511 27.8397C101.191 28.5757 100.855 29.3757 100.503 30.2397C100.151 31.1037 99.8466 31.6317 99.5906 31.8237ZM115.4 30.5757C115.272 30.5757 115.112 30.5437 114.92 30.4797C114.76 30.3837 114.68 30.3357 114.68 30.3357C114.68 30.2077 114.632 30.0477 114.536 29.8557C114.472 29.6637 114.44 29.5037 114.44 29.3757C114.216 29.2477 114.088 29.1197 114.056 28.9917C114.024 28.8317 114.072 28.5757 114.2 28.2237C114.392 27.9037 114.648 27.3917 114.968 26.6877C115.288 25.9517 115.624 25.1677 115.976 24.3357C116.328 23.4717 116.664 22.6237 116.984 21.7917C117.304 20.9597 117.576 20.2557 117.8 19.6797C118.024 19.0717 118.152 18.7037 118.184 18.5757C118.184 18.4477 118.232 18.2877 118.328 18.0957C118.424 17.9037 118.536 17.7437 118.664 17.6157C118.92 17.3917 119.192 17.3757 119.48 17.5677C119.768 17.7277 120.008 18.0157 120.2 18.4317C120.424 18.8157 120.536 19.2477 120.536 19.7277C120.536 19.9517 120.376 20.5277 120.056 21.4557C119.736 22.3517 119.304 23.4237 118.76 24.6717C118.248 25.9197 117.672 27.1837 117.032 28.4637C116.552 29.3917 116.248 29.9837 116.12 30.2397C115.992 30.4637 115.752 30.5757 115.4 30.5757ZM122.456 12.3837C122.072 12.3837 121.656 12.2397 121.208 11.9517C120.792 11.6317 120.424 11.2477 120.104 10.7997C119.816 10.3197 119.672 9.83973 119.672 9.35973C119.672 9.19973 119.768 8.97573 119.96 8.68773C120.152 8.39973 120.344 8.11173 120.536 7.82373C120.728 7.53573 120.824 7.35973 120.824 7.29573C121.08 7.29573 121.272 7.31173 121.4 7.34373C121.56 7.34373 121.752 7.40773 121.976 7.53573C122.328 8.33573 122.76 8.99173 123.272 9.50373C123.816 10.0157 124.088 10.4477 124.088 10.7997C124.088 11.5037 124.024 11.9517 123.896 12.1437C123.768 12.3037 123.288 12.3837 122.456 12.3837ZM140.433 30.7197C139.793 30.7197 139.265 30.5917 138.849 30.3357C138.433 30.0477 138.081 29.5837 137.793 28.9437C137.665 28.4957 137.553 27.9997 137.457 27.4557C137.393 26.8797 137.361 26.3517 137.361 25.8717C137.361 25.3597 137.409 25.0237 137.505 24.8637C137.633 24.7357 137.681 24.5117 137.649 24.1917C137.649 23.8397 137.649 23.4717 137.649 23.0877C137.617 22.4477 137.457 22.0957 137.169 22.0317C136.913 21.9357 136.529 22.0317 136.017 22.3197C135.441 22.6717 134.689 23.1517 133.761 23.7597C132.833 24.3357 131.857 24.9757 130.833 25.6797C129.841 26.3837 128.897 27.1197 128.001 27.8877C127.297 28.6557 126.865 29.2477 126.705 29.6637C126.577 30.0477 126.385 30.2397 126.129 30.2397C125.873 30.3677 125.649 30.3837 125.457 30.2877C125.297 30.1597 125.057 29.9677 124.737 29.7117C124.513 29.4557 124.289 29.2157 124.065 28.9917C123.841 28.7357 123.697 28.5437 123.633 28.4157C123.633 28.2557 123.681 27.9197 123.777 27.4077C123.873 26.8957 123.985 26.3837 124.113 25.8717C124.273 25.3597 124.385 25.0237 124.449 24.8637C124.609 24.8637 124.737 24.7037 124.833 24.3837C124.961 24.0637 125.153 23.7117 125.409 23.3277C125.473 22.9437 125.633 22.4317 125.889 21.7917C126.177 21.1197 126.433 20.5277 126.657 20.0157C127.105 19.2477 127.409 18.6077 127.569 18.0957C127.761 17.5837 127.889 16.9437 127.953 16.1757C127.921 16.0477 127.953 15.9357 128.049 15.8397C128.145 15.7117 128.257 15.6477 128.385 15.6477C128.641 15.3917 128.945 15.3277 129.297 15.4557C129.649 15.5517 129.969 15.7917 130.257 16.1757C130.833 16.9437 131.057 17.7437 130.929 18.5757C130.833 19.3757 130.321 20.5277 129.393 22.0317C129.169 22.5437 128.993 22.9437 128.865 23.2317C128.769 23.4877 128.721 23.6957 128.721 23.8557C128.721 23.8557 128.881 23.7437 129.201 23.5197C129.553 23.2957 129.937 23.0397 130.353 22.7517C130.801 22.4317 131.153 22.1917 131.409 22.0317C131.569 21.8717 131.937 21.5837 132.513 21.1677C133.089 20.7517 133.697 20.3517 134.337 19.9677C135.009 19.5517 135.505 19.3117 135.825 19.2477C136.081 19.1197 136.353 19.0077 136.641 18.9117C136.929 18.7837 137.137 18.7197 137.265 18.7197C137.521 18.7197 137.841 18.8637 138.225 19.1517C138.641 19.4077 139.025 19.7277 139.377 20.1117C139.729 20.4637 139.937 20.7677 140.001 21.0237C140.001 21.1517 140.001 21.2797 140.001 21.4077C140.033 21.5357 140.065 21.6637 140.097 21.7917C140.225 22.2077 140.289 22.7677 140.289 23.4717C140.321 24.1757 140.305 24.8157 140.241 25.3917C140.177 25.9677 140.065 26.3037 139.905 26.3997C139.905 26.3997 139.905 26.4477 139.905 26.5437C139.937 26.6077 140.017 26.6397 140.145 26.6397C140.145 26.7677 140.145 26.8477 140.145 26.8797C139.985 26.8797 139.921 27.0237 139.953 27.3117C139.985 27.5677 140.081 27.8557 140.241 28.1757C140.433 28.4957 140.625 28.7517 140.817 28.9437C141.201 29.3277 141.361 29.6957 141.297 30.0477C141.233 30.3677 140.945 30.5917 140.433 30.7197ZM145.386 31.1997C145.258 30.9437 145.098 30.7517 144.906 30.6237C144.714 30.4637 144.618 30.3197 144.618 30.1917C144.618 30.0637 144.602 29.9357 144.57 29.8077C144.57 29.6477 144.506 29.5037 144.378 29.3757C144.218 29.1837 144.234 28.7517 144.426 28.0797C144.618 27.3757 144.938 26.5277 145.386 25.5357C145.834 24.5117 146.362 23.4397 146.97 22.3197C147.226 22.0637 147.482 21.7277 147.738 21.3117C147.994 20.8957 148.186 20.6237 148.314 20.4957C148.314 20.3677 148.362 20.2557 148.458 20.1597C148.554 20.0317 148.666 19.9677 148.794 19.9677V19.6797C148.794 19.5197 148.938 19.2477 149.226 18.8637C149.546 18.4797 149.93 18.0637 150.378 17.6157C150.826 17.1357 151.29 16.6877 151.77 16.2717C152.25 15.8237 152.65 15.5037 152.97 15.3117C153.642 14.8637 154.33 14.5917 155.034 14.4957C155.77 14.3997 156.394 14.5597 156.906 14.9757C157.002 15.0717 157.162 15.2317 157.386 15.4557C157.61 15.6797 157.866 15.9357 158.154 16.2237C158.474 16.4797 158.794 16.7517 159.114 17.0397L160.89 18.6237L160.026 21.0237C159.61 22.3037 159.498 23.4237 159.69 24.3837C159.914 25.3437 160.234 26.1757 160.65 26.8797C160.81 27.2317 161.13 27.5677 161.61 27.8877C162.122 28.2077 162.602 28.3997 163.05 28.4637C163.306 28.4957 163.546 28.5917 163.77 28.7517C163.994 28.9117 164.106 29.1677 164.106 29.5197C164.106 29.8397 164.042 30.0957 163.914 30.2877C163.786 30.4797 163.562 30.6077 163.242 30.6717C162.186 30.7997 161.194 30.5437 160.266 29.9037C159.37 29.2637 158.538 28.2077 157.77 26.7357C157.642 26.5437 157.466 26.1917 157.242 25.6797C157.05 25.1357 156.938 24.7837 156.906 24.6237C156.778 24.7837 156.538 25.0877 156.186 25.5357C155.834 25.9517 155.562 26.2557 155.37 26.4477C153.098 28.7517 151.13 30.3037 149.466 31.1037C147.834 31.8717 146.474 31.9037 145.386 31.1997ZM147.114 28.5117C147.114 28.7357 147.45 28.7357 148.122 28.5117C148.826 28.2557 149.578 27.8077 150.378 27.1677C151.466 26.2397 152.554 25.2157 153.642 24.0957C154.762 22.9757 155.658 21.9357 156.33 20.9757L157.386 19.2477C157.066 18.5117 156.714 18.0157 156.33 17.7597C155.978 17.4717 155.674 17.3277 155.418 17.3277C155.002 17.3277 154.378 17.7117 153.546 18.4797C152.746 19.2477 151.882 20.2717 150.954 21.5517C150.026 22.8317 149.146 24.2397 148.314 25.7757C147.994 26.4157 147.706 27.0397 147.45 27.6477C147.226 28.2237 147.114 28.5117 147.114 28.5117ZM177.436 34.7037C177.02 34.4477 176.796 34.1917 176.764 33.9357C176.732 33.7117 176.812 33.2637 177.004 32.5917C176.972 32.1757 176.988 31.7917 177.052 31.4397C177.148 31.0877 177.212 30.8477 177.244 30.7197C177.404 30.7197 177.5 30.6237 177.532 30.4317C177.564 30.2397 177.58 30.0797 177.58 29.9517C177.58 29.6957 177.676 29.2637 177.868 28.6557C178.092 28.0477 178.284 27.4237 178.444 26.7837C178.7 26.1437 178.94 25.5517 179.164 25.0077C179.42 24.4317 179.548 24.0797 179.548 23.9517C179.548 23.6957 179.612 23.4397 179.74 23.1837C179.868 22.8957 180.012 22.6237 180.172 22.3677C180.332 21.9837 180.444 21.5677 180.508 21.1197C180.604 20.6397 180.652 20.2717 180.652 20.0157C180.844 19.5997 181.052 19.1517 181.276 18.6717C181.5 18.1917 181.676 17.6957 181.804 17.1837C181.996 16.6397 182.268 15.8557 182.62 14.8317C183.004 13.7757 183.404 12.7037 183.82 11.6157C184.108 11.0077 184.396 10.3677 184.684 9.69573C184.972 9.02373 185.228 8.44773 185.452 7.96773C185.676 7.48773 185.836 7.24773 185.932 7.24773C185.932 7.24773 185.932 7.19973 185.932 7.10373C185.932 6.97573 185.932 6.84773 185.932 6.71973C185.932 6.55973 186.06 6.25573 186.316 5.80773C186.572 5.32773 186.812 4.83173 187.036 4.31973C187.356 3.83973 187.58 3.39173 187.708 2.97573C187.836 2.52773 187.9 2.30373 187.9 2.30373C187.9 2.30373 187.948 2.20773 188.044 2.01573C188.172 1.82373 188.3 1.66373 188.428 1.53573C188.844 1.24773 189.228 1.13573 189.58 1.19973C189.964 1.26373 190.284 1.56773 190.54 2.11173C190.796 2.62373 190.908 3.05573 190.876 3.40773C190.844 3.72773 190.7 4.07973 190.444 4.46373C190.188 5.03973 189.852 5.77573 189.436 6.67173C189.02 7.53573 188.572 8.47973 188.092 9.50373C187.644 10.4957 187.212 11.4557 186.796 12.3837C186.412 13.2797 186.092 14.0637 185.836 14.7357C185.612 15.3757 185.5 15.7757 185.5 15.9357L183.532 20.7837C183.532 20.8477 183.468 21.0077 183.34 21.2637C183.244 21.5197 183.1 21.9037 182.908 22.4157C182.748 22.9277 182.54 23.5997 182.284 24.4317C182.028 25.2637 181.724 26.2717 181.372 27.4557C180.732 29.5037 180.236 31.1037 179.884 32.2557C179.532 33.3757 179.244 34.1437 179.02 34.5597C178.828 35.0077 178.62 35.2317 178.396 35.2317C178.268 35.2317 178.124 35.1677 177.964 35.0397C177.836 34.9437 177.66 34.8317 177.436 34.7037ZM194.38 35.0877C194.092 35.1197 193.692 34.9757 193.18 34.6557C192.7 34.3677 192.172 33.9997 191.596 33.5517C191.052 33.1037 190.524 32.6397 190.012 32.1597C189.532 31.6797 189.148 31.2637 188.86 30.9117C188.348 30.1757 187.708 29.2157 186.94 28.0317C186.172 26.8157 185.596 25.5197 185.212 24.1437C184.988 23.1197 184.764 22.3197 184.54 21.7437C184.316 21.1357 184.172 20.6397 184.108 20.2557L184.156 16.8957L186.604 17.6637C186.764 19.3917 187.004 20.8317 187.324 21.9837C187.676 23.1037 188.092 24.0957 188.572 24.9597C188.956 25.7917 189.388 26.6237 189.868 27.4557C190.348 28.2557 190.86 28.9277 191.404 29.4717C192.14 30.2717 192.796 30.8637 193.372 31.2477C193.948 31.6317 194.38 31.8237 194.668 31.8237C194.828 31.8557 195.052 31.9677 195.34 32.1597C195.66 32.3517 195.948 32.5597 196.204 32.7837C196.492 32.9757 196.652 33.1677 196.684 33.3597C196.716 33.4557 196.732 33.5997 196.732 33.7917C196.732 34.0157 196.7 34.2077 196.636 34.3677C196.604 34.5597 196.556 34.7037 196.492 34.7997C196.396 35.0237 196.22 35.2157 195.964 35.3757C195.74 35.5677 195.212 35.4717 194.38 35.0877ZM183.628 17.2797L187.132 14.7357C187.228 14.6397 187.564 14.3197 188.14 13.7757C188.748 13.2317 189.74 12.4477 191.116 11.4237L197.02 6.62373C197.82 6.20773 198.636 5.67973 199.468 5.03973C200.332 4.39973 200.988 3.93573 201.436 3.64773C201.98 3.26373 202.46 2.92773 202.876 2.63973C203.292 2.35173 203.564 2.22373 203.692 2.25573C203.948 2.12773 204.204 2.17573 204.46 2.39973C204.748 2.59173 204.972 2.86373 205.132 3.21573C205.324 3.53573 205.404 3.82373 205.372 4.07973C205.436 4.39973 205.372 4.67173 205.18 4.89573C204.988 5.11973 204.524 5.43973 203.788 5.85573C203.18 6.14373 202.636 6.43173 202.156 6.71973C201.708 7.00773 201.436 7.24773 201.34 7.43973C201.34 7.43973 201.036 7.67973 200.428 8.15973C199.852 8.60773 199.1 9.15173 198.172 9.79173C196.892 10.6237 195.788 11.4077 194.86 12.1437C193.964 12.8797 193.388 13.4397 193.132 13.8237C193.004 13.8237 192.876 13.8717 192.748 13.9677C192.652 14.0637 192.54 14.0957 192.412 14.0637C192.412 14.0637 192.284 14.1437 192.028 14.3037C191.804 14.4637 191.628 14.6237 191.5 14.7837C191.436 14.9437 191.292 15.1677 191.068 15.4557C190.876 15.7437 190.62 15.8717 190.3 15.8397C190.076 15.9677 189.676 16.2397 189.1 16.6557C188.524 17.0397 187.916 17.4717 187.276 17.9517C186.668 18.4317 186.14 18.8637 185.692 19.2477C185.244 19.6317 185.004 19.8557 184.972 19.9197L183.628 17.2797ZM210.893 32.8317C210.669 32.9597 210.365 32.9117 209.981 32.6877C209.629 32.4637 209.277 32.1277 208.924 31.6797C208.701 31.2957 208.541 30.8797 208.445 30.4317C208.381 29.9837 208.349 29.3597 208.349 28.5597C208.381 27.9197 208.349 27.5037 208.253 27.3117C208.189 27.1197 208.013 27.1517 207.725 27.4077C207.437 27.6317 206.941 28.0957 206.237 28.7997C205.437 29.5997 204.669 30.2237 203.933 30.6717C203.229 31.1197 202.653 31.3277 202.205 31.2957C201.981 31.2957 201.725 31.1837 201.437 30.9597C201.181 30.7037 200.941 30.3997 200.717 30.0477C200.493 29.6637 200.301 29.2797 200.141 28.8957C199.949 28.1917 199.917 27.2957 200.045 26.2077C200.205 25.0877 200.461 23.9197 200.812 22.7037C201.165 21.4877 201.565 20.3357 202.013 19.2477C202.493 18.1597 202.973 17.2797 203.453 16.6077C203.965 15.9357 204.413 15.5997 204.797 15.5997C205.053 15.5997 205.277 15.7277 205.469 15.9837C205.693 16.2397 205.917 16.6397 206.141 17.1837C206.269 17.4077 206.317 17.5997 206.285 17.7597C206.285 17.9197 206.157 18.1117 205.901 18.3357C205.613 18.7197 205.277 19.2957 204.893 20.0637C204.541 20.8317 204.189 21.6637 203.837 22.5597C203.517 23.4557 203.229 24.3197 202.973 25.1517C202.717 25.9837 202.541 26.6717 202.445 27.2157C202.349 27.7277 202.365 27.9837 202.493 27.9837C202.941 27.9837 203.469 27.8077 204.077 27.4557C204.717 27.0717 205.325 26.6077 205.901 26.0637C206.573 25.3917 207.165 24.6557 207.677 23.8557C208.221 23.0557 208.765 22.2077 209.309 21.3117C209.725 20.6717 210.157 19.9677 210.605 19.1997C211.085 18.4317 211.389 17.8877 211.517 17.5677C211.965 16.7357 212.301 16.1757 212.525 15.8877C212.749 15.5677 213.021 15.3597 213.341 15.2637C213.501 15.2637 213.645 15.2637 213.773 15.2637C213.933 15.2637 214.013 15.2637 214.013 15.2637C214.205 15.2957 214.429 15.4397 214.685 15.6957C214.941 15.8237 215.085 15.9517 215.117 16.0797C215.149 16.1757 215.165 16.3037 215.165 16.4637C215.037 16.7837 214.829 17.2637 214.541 17.9037C214.285 18.5117 214.093 18.9597 213.965 19.2477C213.357 20.6237 212.749 21.9837 212.141 23.3277C211.565 24.6397 211.149 25.9837 210.893 27.3597C210.829 27.8077 210.813 28.3357 210.845 28.9437C210.909 29.5197 211.005 29.9357 211.133 30.1917C211.229 30.3837 211.341 30.6077 211.469 30.8637C211.629 31.0877 211.805 31.2797 211.997 31.4397C212.285 31.6317 212.333 31.8397 212.141 32.0637C211.981 32.2877 211.757 32.4797 211.469 32.6397C211.181 32.7677 210.989 32.8317 210.893 32.8317ZM220.306 31.4397C220.21 31.4717 220.05 31.4557 219.826 31.3917C219.602 31.3277 219.378 31.2477 219.154 31.1517C218.93 31.0557 218.786 30.9757 218.722 30.9117C218.594 30.7837 218.466 30.5917 218.338 30.3357C218.242 30.0797 218.242 29.7117 218.338 29.2317C218.434 28.7197 218.754 28.0637 219.298 27.2637C219.458 26.9437 219.65 26.4637 219.874 25.8237C220.098 25.1837 220.322 24.5117 220.546 23.8077C220.802 23.0717 221.026 22.4157 221.218 21.8397C221.442 21.2637 221.602 20.8637 221.698 20.6397C221.762 20.0957 221.73 19.7117 221.602 19.4877C221.506 19.2317 221.234 19.0877 220.786 19.0557C220.466 19.0557 220.21 19.0237 220.018 18.9597C219.858 18.8957 219.778 18.5757 219.778 17.9997C219.842 17.5517 219.954 17.2477 220.114 17.0877C220.306 16.8957 220.562 16.6877 220.882 16.4637C221.202 16.3037 221.522 16.1917 221.842 16.1277C222.194 16.0637 222.53 16.0477 222.85 16.0797C223.17 16.1117 223.426 16.2237 223.618 16.4157C223.842 16.5437 223.986 16.8317 224.05 17.2797C224.114 17.6957 224.146 18.1277 224.146 18.5757C224.178 19.0237 224.21 19.3597 224.242 19.5837C224.562 19.3277 224.994 18.9757 225.538 18.5277C226.114 18.0477 226.61 17.5997 227.026 17.1837C227.538 16.8317 228.146 16.4797 228.85 16.1277C229.554 15.7437 230.066 15.5517 230.386 15.5517C230.738 15.5517 231.09 15.6477 231.442 15.8397C231.794 15.9997 232.034 16.2077 232.162 16.4637C232.482 17.0077 232.626 17.4877 232.594 17.9037C232.594 18.3197 232.418 18.7517 232.066 19.1997C231.746 19.6157 231.346 19.9037 230.866 20.0637C230.418 20.2237 230.13 20.3037 230.002 20.3037C229.81 20.3037 229.57 20.1597 229.282 19.8717C228.994 19.5837 228.834 19.3437 228.802 19.1517C228.802 19.0557 228.594 19.1517 228.178 19.4397C227.794 19.6957 227.362 20.0317 226.882 20.4477C226.402 20.8317 226.002 21.1837 225.682 21.5037C225.138 22.1757 224.562 23.0877 223.954 24.2397C223.346 25.3917 222.626 26.7837 221.794 28.4157C221.41 29.2157 221.138 29.9037 220.978 30.4797C220.818 31.0237 220.594 31.3437 220.306 31.4397ZM240.579 42.0957C239.971 42.3517 239.299 42.4317 238.563 42.3357C237.859 42.2717 237.155 42.0637 236.451 41.7117C235.779 41.3597 235.171 40.9277 234.627 40.4157C234.403 40.1917 234.163 39.8397 233.907 39.3597C233.683 38.9117 233.507 38.4797 233.379 38.0637C233.283 37.6477 233.299 37.4077 233.427 37.3437C233.555 37.2477 233.731 37.2157 233.955 37.2477C234.179 37.2797 234.387 37.3277 234.579 37.3917C234.803 37.4877 234.915 37.5997 234.915 37.7277C235.107 37.8877 235.443 38.1277 235.923 38.4477C236.403 38.7997 236.771 39.0077 237.027 39.0717C237.699 39.2957 238.195 39.3917 238.515 39.3597C238.835 39.3277 239.123 39.2157 239.379 39.0237C239.891 38.5757 240.291 38.0317 240.579 37.3917C240.867 36.7517 241.171 35.8717 241.491 34.7517L241.635 34.1277C241.891 32.9437 242.179 31.6797 242.499 30.3357C242.819 28.9917 243.091 27.9357 243.315 27.1677C243.475 26.4317 243.523 25.9357 243.459 25.6797C243.427 25.4237 243.283 25.4717 243.027 25.8237C242.899 25.8557 242.723 25.9197 242.499 26.0157C242.307 26.1117 242.083 26.2237 241.827 26.3517C241.443 26.5437 241.059 26.7357 240.675 26.9277C240.291 27.0877 239.971 27.1997 239.715 27.2637C239.459 27.2637 239.219 27.2797 238.995 27.3117C238.771 27.3117 238.659 27.3117 238.659 27.3117C238.403 27.4717 237.939 27.4557 237.267 27.2637C236.627 27.0397 236.051 26.7197 235.539 26.3037C235.251 25.9197 235.043 25.6317 234.915 25.4397C234.787 25.2157 234.707 24.9917 234.675 24.7677C234.643 24.5117 234.627 24.1277 234.627 23.6157C234.595 23.1037 234.835 22.3677 235.347 21.4077C235.891 20.4157 236.547 19.4877 237.315 18.6237C237.923 18.0157 238.707 17.3917 239.667 16.7517C240.627 16.1117 241.587 15.5837 242.547 15.1677C243.539 14.7517 244.355 14.5597 244.995 14.5917C245.315 14.6237 245.619 14.6717 245.907 14.7357C246.195 14.7677 246.515 14.9117 246.867 15.1677C247.315 15.3917 247.635 15.6317 247.827 15.8877C248.019 16.1437 248.275 16.6397 248.595 17.3757C248.787 17.8877 248.931 18.3997 249.027 18.9117C249.123 19.3917 249.171 19.8557 249.171 20.3037C249.171 20.7837 249.107 21.2157 248.979 21.5997C248.851 21.9837 248.675 22.2877 248.451 22.5117C248.387 22.5117 248.307 22.5277 248.211 22.5597C248.147 22.5597 248.083 22.5757 248.019 22.6077C247.827 22.6717 247.667 22.7037 247.539 22.7037C247.443 22.7037 247.331 22.8157 247.203 23.0397C247.075 23.2317 246.979 23.4877 246.915 23.8077C246.883 23.9997 246.835 24.1917 246.771 24.3837C246.739 24.5757 246.691 24.7517 246.627 24.9117C246.563 25.0717 246.499 25.2157 246.435 25.3437C246.403 25.4397 246.387 25.5197 246.387 25.5837C246.387 25.6797 246.371 25.7597 246.339 25.8237C246.307 25.8877 246.259 25.9677 246.195 26.0637C246.099 26.2237 246.003 26.4317 245.907 26.6877C245.843 26.9117 245.811 27.1517 245.811 27.4077L245.619 27.9357C245.523 28.2557 245.427 28.5437 245.331 28.7997C245.267 29.0557 245.235 29.2157 245.235 29.2797L245.043 30.2397C244.979 30.4637 244.899 30.6717 244.803 30.8637C244.739 31.0237 244.675 31.2797 244.611 31.6317C244.547 31.9517 244.467 32.4797 244.371 33.2157C243.731 35.9677 243.091 38.0317 242.451 39.4077C241.811 40.8157 241.187 41.7117 240.579 42.0957ZM237.267 24.6717C238.099 24.9917 238.963 25.0237 239.859 24.7677C240.755 24.5117 241.779 23.9357 242.931 23.0397C243.667 22.4957 244.275 21.8717 244.755 21.1677C245.267 20.4317 245.635 19.6797 245.859 18.9117C246.019 18.4317 246.067 18.0957 246.003 17.9037C245.939 17.6797 245.731 17.5517 245.379 17.5197C244.835 17.3917 244.147 17.4877 243.315 17.8077C242.483 18.0957 241.635 18.5117 240.771 19.0557C240.611 19.2797 240.419 19.4877 240.195 19.6797C239.971 19.8717 239.763 20.0317 239.571 20.1597C239.411 20.2557 239.331 20.3037 239.331 20.3037C239.299 20.3677 239.251 20.4477 239.187 20.5437C239.155 20.6397 239.075 20.7197 238.947 20.7837C238.627 21.0717 238.307 21.5037 237.987 22.0797C237.667 22.6557 237.427 23.1997 237.267 23.7117C237.139 24.2237 237.139 24.5437 237.267 24.6717ZM254.714 31.3437C254.33 31.4077 253.914 31.3437 253.466 31.1517C253.018 30.9597 252.618 30.6877 252.266 30.3357C251.946 29.9837 251.738 29.6157 251.642 29.2317C251.514 28.5597 251.594 27.7277 251.882 26.7357C252.202 25.7117 252.65 24.6397 253.226 23.5197C253.834 22.3677 254.506 21.2637 255.242 20.2077C256.01 19.1517 256.794 18.2397 257.594 17.4717C258.426 16.6717 259.194 16.1277 259.898 15.8397C260.25 15.6157 260.522 15.4717 260.714 15.4077C260.938 15.3117 261.162 15.2957 261.386 15.3597C261.642 15.4237 262.01 15.5837 262.49 15.8397C262.938 15.9677 263.274 16.1117 263.498 16.2717C263.722 16.4317 264.01 16.7517 264.362 17.2317C264.618 17.7117 264.81 18.1917 264.938 18.6717C265.066 19.1517 265.178 19.6957 265.274 20.3037C265.53 21.1037 265.626 21.6317 265.562 21.8877C265.498 22.1117 265.402 22.2877 265.274 22.4157C265.018 22.7357 264.954 22.8957 265.082 22.8957C265.082 22.8957 265.066 22.9597 265.034 23.0877C265.034 23.1837 264.97 23.3437 264.842 23.5677C264.618 24.2717 264.442 25.0077 264.314 25.7757C264.218 26.5117 264.234 27.1197 264.362 27.5997C264.618 28.3037 265.082 28.7197 265.754 28.8477C266.426 28.9757 267.114 28.6877 267.818 27.9837C268.17 27.7277 268.506 27.5037 268.826 27.3117C269.146 27.0877 269.306 27.1037 269.306 27.3597C269.306 27.3597 269.354 27.4077 269.45 27.5037C269.546 27.5677 269.658 27.5997 269.786 27.5997C269.946 27.5997 270.042 27.6637 270.074 27.7917C270.138 27.9197 270.138 28.0957 270.074 28.3197C270.042 28.5117 269.946 28.7357 269.786 28.9917C269.306 29.4717 269.066 29.7917 269.066 29.9517C269.066 29.9517 269.002 30.0157 268.874 30.1437C268.778 30.2397 268.602 30.3997 268.346 30.6237C267.77 30.9757 267.034 31.1517 266.138 31.1517C265.274 31.1517 264.602 30.9757 264.122 30.6237C263.642 30.2717 263.194 29.7917 262.778 29.1837C262.394 28.5757 262.138 28.0477 262.01 27.5997L261.77 27.1197L260.378 28.0317C260.026 28.3837 259.642 28.7197 259.226 29.0397C258.842 29.3597 258.586 29.5837 258.458 29.7117C258.362 29.8397 258.25 29.9517 258.122 30.0477C258.026 30.1437 257.914 30.1917 257.786 30.1917C257.658 30.1917 257.546 30.1917 257.45 30.1917C257.354 30.1917 257.306 30.1917 257.306 30.1917C257.306 30.3197 257.146 30.4797 256.826 30.6717C256.538 30.8637 256.186 31.0237 255.77 31.1517C255.386 31.2797 255.034 31.3437 254.714 31.3437ZM254.234 28.7517C254.426 28.7517 254.762 28.6077 255.242 28.3197C255.754 27.9997 256.314 27.6317 256.922 27.2157C257.562 26.7997 258.122 26.3837 258.602 25.9677C259.114 25.5517 259.466 25.2317 259.658 25.0077C259.786 24.8797 259.994 24.6717 260.282 24.3837C260.57 24.0637 260.826 23.7917 261.049 23.5677C261.786 22.7357 262.298 21.8237 262.586 20.8317C262.874 19.8077 262.842 19.0077 262.49 18.4317C262.362 18.0797 262.202 17.8877 262.01 17.8557C261.818 17.8237 261.418 17.9357 260.81 18.1917C260.426 18.4157 259.946 18.8477 259.37 19.4877C258.826 20.0957 258.234 20.8157 257.594 21.6477C256.986 22.4477 256.41 23.2797 255.866 24.1437C255.322 25.0077 254.874 25.8077 254.522 26.5437C254.17 27.2797 253.993 27.8557 253.993 28.2717C253.993 28.3997 254.026 28.5117 254.09 28.6077C254.186 28.7037 254.234 28.7517 254.234 28.7517ZM288.417 30.7197C287.777 30.7197 287.249 30.5917 286.833 30.3357C286.417 30.0477 286.065 29.5837 285.777 28.9437C285.649 28.4957 285.537 27.9997 285.441 27.4557C285.377 26.8797 285.345 26.3517 285.345 25.8717C285.345 25.3597 285.393 25.0237 285.489 24.8637C285.617 24.7357 285.665 24.5117 285.633 24.1917C285.633 23.8397 285.633 23.4717 285.633 23.0877C285.601 22.4477 285.441 22.0957 285.153 22.0317C284.897 21.9357 284.513 22.0317 284.001 22.3197C283.425 22.6717 282.673 23.1517 281.745 23.7597C280.817 24.3357 279.841 24.9757 278.817 25.6797C277.825 26.3837 276.881 27.1197 275.985 27.8877C275.281 28.6557 274.849 29.2477 274.689 29.6637C274.561 30.0477 274.369 30.2397 274.113 30.2397C273.857 30.3677 273.633 30.3837 273.441 30.2877C273.281 30.1597 273.041 29.9677 272.721 29.7117C272.497 29.4557 272.273 29.2157 272.049 28.9917C271.825 28.7357 271.681 28.5437 271.617 28.4157C271.617 28.2557 271.665 27.9197 271.761 27.4077C271.857 26.8957 271.969 26.3837 272.097 25.8717C272.257 25.3597 272.369 25.0237 272.433 24.8637C272.593 24.8637 272.721 24.7037 272.817 24.3837C272.945 24.0637 273.137 23.7117 273.393 23.3277C273.457 22.9437 273.617 22.4317 273.873 21.7917C274.161 21.1197 274.417 20.5277 274.641 20.0157C275.089 19.2477 275.393 18.6077 275.553 18.0957C275.745 17.5837 275.873 16.9437 275.937 16.1757C275.905 16.0477 275.937 15.9357 276.033 15.8397C276.129 15.7117 276.241 15.6477 276.369 15.6477C276.625 15.3917 276.929 15.3277 277.281 15.4557C277.633 15.5517 277.953 15.7917 278.241 16.1757C278.817 16.9437 279.041 17.7437 278.913 18.5757C278.817 19.3757 278.305 20.5277 277.377 22.0317C277.153 22.5437 276.977 22.9437 276.849 23.2317C276.753 23.4877 276.705 23.6957 276.705 23.8557C276.705 23.8557 276.865 23.7437 277.185 23.5197C277.537 23.2957 277.921 23.0397 278.337 22.7517C278.785 22.4317 279.137 22.1917 279.393 22.0317C279.553 21.8717 279.921 21.5837 280.497 21.1677C281.073 20.7517 281.681 20.3517 282.321 19.9677C282.993 19.5517 283.489 19.3117 283.809 19.2477C284.065 19.1197 284.337 19.0077 284.625 18.9117C284.913 18.7837 285.121 18.7197 285.249 18.7197C285.505 18.7197 285.825 18.8637 286.209 19.1517C286.625 19.4077 287.009 19.7277 287.361 20.1117C287.713 20.4637 287.921 20.7677 287.985 21.0237C287.985 21.1517 287.985 21.2797 287.985 21.4077C288.017 21.5357 288.049 21.6637 288.081 21.7917C288.209 22.2077 288.273 22.7677 288.273 23.4717C288.305 24.1757 288.289 24.8157 288.225 25.3917C288.161 25.9677 288.049 26.3037 287.889 26.3997C287.889 26.3997 287.889 26.4477 287.889 26.5437C287.921 26.6077 288.001 26.6397 288.129 26.6397C288.129 26.7677 288.129 26.8477 288.129 26.8797C287.969 26.8797 287.905 27.0237 287.937 27.3117C287.969 27.5677 288.065 27.8557 288.225 28.1757C288.417 28.4957 288.609 28.7517 288.801 28.9437C289.185 29.3277 289.345 29.6957 289.281 30.0477C289.217 30.3677 288.929 30.5917 288.417 30.7197Z" fill="white"/>
</svg>
