<svg width="578" height="83" viewBox="0 0 578 83" fill="none" xmlns="http://www.w3.org/2000/svg">
<path d="M15.176 66.304C13.768 66.24 12.456 65.888 11.24 65.248C10.024 64.608 8.648 63.68 7.112 62.464L5.192 61.12C4.04 59.968 3.144 58.784 2.504 57.568C1.928 56.288 1.448 54.656 1.064 52.672C0.936 51.904 0.872 51.232 0.872 50.656C0.872 48.8 1.192 46.624 1.832 44.128C2.472 41.568 3.176 39.488 3.944 37.888C5.352 34.496 8.456 29.056 13.256 21.568C13.512 21.312 13.672 21.152 13.736 21.088C13.864 20.96 13.896 20.896 13.832 20.896C13.832 20.832 13.832 20.8 13.832 20.8C13.832 20.352 14.76 18.368 16.616 14.848C17.704 13.696 18.248 12.704 18.248 11.872C18.248 11.424 18.152 11.072 17.96 10.816C17.704 10.496 18.28 9.728 19.688 8.512C21.16 7.232 22.984 5.984 25.16 4.768C26.888 3.424 28.584 2.752 30.248 2.752C30.76 2.752 31.176 2.848 31.496 3.04C31.88 3.168 32.104 3.392 32.168 3.712C32.168 4.096 33.448 3.968 36.008 3.328C37.16 3.072 37.992 2.912 38.504 2.848C38.76 2.528 39.4 2.272 40.424 2.08C41.512 1.824 43.016 1.568 44.936 1.31199C45.96 1.376 47.016 1.376 48.104 1.31199C49.192 1.248 49.896 1.184 50.216 1.12C50.728 0.927996 51.272 1.024 51.848 1.408C52.488 1.728 53.032 2.4 53.48 3.424C53.672 3.872 53.768 4.288 53.768 4.672C53.768 5.376 53.32 5.952 52.424 6.4C51.592 6.784 50.12 7.104 48.008 7.36C45.896 7.616 44.584 7.776 44.072 7.84C40.552 8.224 36.84 8.832 32.936 9.664C30.44 10.176 28.616 10.816 27.464 11.584C26.376 12.352 25.128 13.824 23.72 16C23.272 16.32 22.696 17.152 21.992 18.496C21.288 19.776 20.584 21.12 19.88 22.528C19.688 22.784 19.464 23.104 19.208 23.488C18.952 23.872 18.632 24.288 18.248 24.736C16.392 27.232 15.112 29.056 14.408 30.208C13.704 31.296 13.448 31.968 13.64 32.224C13.832 32.288 14.184 32.384 14.696 32.512C15.272 32.64 15.752 32.736 16.136 32.8C16.712 32.48 17.512 32.256 18.536 32.128C19.56 32 20.296 31.872 20.744 31.744C30.92 29.12 36.68 27.712 38.024 27.52C38.6 27.136 39.144 26.944 39.656 26.944C40.808 26.944 41.832 27.712 42.728 29.248C42.92 29.632 43.016 29.984 43.016 30.304C43.016 30.88 42.568 31.424 41.672 31.936C40.776 32.448 39.08 33.088 36.584 33.856C34.088 34.56 31.08 35.392 27.56 36.352L24.488 37.216C20.328 38.432 17.096 39.04 14.792 39.04C12.808 39.04 11.848 38.496 11.912 37.408C11.272 37.088 10.536 37.792 9.704 39.52C8.936 41.248 8.264 43.392 7.688 45.952C7.112 48.448 6.824 50.56 6.824 52.288C6.824 53.184 6.92 53.888 7.112 54.4C7.688 56 8.392 57.216 9.224 58.048C10.12 58.88 11.592 59.584 13.64 60.16C14.088 60.224 14.632 60.288 15.272 60.352C15.976 60.416 16.776 60.448 17.672 60.448C18.952 60.448 20.232 60.192 21.512 59.68C24.776 59.104 27.56 58.464 29.864 57.76C32.232 57.056 33.672 56.544 34.184 56.224C34.568 56.032 34.888 55.904 35.144 55.84C35.4 55.776 35.656 55.744 35.912 55.744L35.816 55.936C35.816 55.936 35.816 55.968 35.816 56.032C35.816 56.032 35.848 56.032 35.912 56.032C36.104 56.032 36.68 55.488 37.64 54.4C38.728 53.504 40.2 52.64 42.056 51.808C43.976 50.976 44.968 50.784 45.032 51.232C45.16 51.616 45.224 51.936 45.224 52.192C45.224 53.408 44.456 54.88 42.92 56.608C41.448 58.272 39.432 59.84 36.872 61.312C33.736 62.976 30.216 64.192 26.312 64.96C22.472 65.792 18.76 66.24 15.176 66.304ZM54.5645 63.52C53.7965 63.264 52.9965 62.528 52.1645 61.312C51.3325 60.032 50.9165 58.88 50.9165 57.856L52.2605 53.824L54.0845 48.064C54.6605 47.232 55.1085 46.24 55.4285 45.088C55.8125 43.872 56.0365 43.168 56.1005 42.976C56.7405 41.76 58.0205 38.816 59.9405 34.144L61.7645 29.728C63.5565 25.888 65.0285 22.432 66.1805 19.36L67.7165 15.808L69.5405 11.584C71.7805 6.144 73.0285 2.976 73.2845 2.08C73.2845 1.568 73.3805 1.184 73.5725 0.927999C73.8285 0.671999 74.0845 0.543999 74.3405 0.543999C74.6605 0.223999 75.1725 0.0639992 75.8765 0.0639992C76.1965 0.0639992 76.7085 0.575998 77.4125 1.6C78.1165 2.56 78.4685 3.392 78.4685 4.096C78.4685 5.184 77.9565 7.168 76.9325 10.048C75.9085 12.864 74.5325 16 72.8045 19.456C66.5325 32.96 63.6525 39.968 64.1645 40.48C64.4205 40.352 64.9645 40.096 65.7965 39.712C66.6285 39.264 67.4925 38.72 68.3885 38.08C68.9645 37.76 69.5085 37.44 70.0205 37.12C70.5325 36.736 70.9805 36.416 71.3645 36.16C73.3485 34.816 74.5645 34.08 75.0125 33.952C75.3965 33.696 76.1325 33.248 77.2205 32.608C78.3725 31.84 78.9805 31.424 79.0445 31.36C79.8125 30.976 80.4525 30.784 80.9645 30.784C81.3485 30.784 81.7005 30.912 82.0205 31.168C82.3405 31.424 82.7245 31.808 83.1725 32.32C83.5565 32.768 83.7485 33.216 83.7485 33.664C83.7485 34.112 83.4925 34.592 82.9805 35.104C82.4685 35.552 81.6045 36.16 80.3885 36.928C79.5565 37.504 78.6925 38.048 77.7965 38.56C76.9005 39.072 76.0365 39.584 75.2045 40.096C70.5965 42.912 68.2285 44.416 68.1005 44.608C68.2285 44.864 68.5165 45.44 68.9645 46.336C69.4765 47.232 69.9565 48 70.4045 48.64L71.8445 51.136C72.6125 52.224 72.9965 52.928 72.9965 53.248C73.5725 54.848 74.3405 56.096 75.3005 56.992C76.3245 57.888 77.4125 58.336 78.5645 58.336C79.1405 58.336 79.8125 58.176 80.5805 57.856C81.5405 57.472 82.3085 57.28 82.8845 57.28C83.7805 57.28 84.3885 57.792 84.7085 58.816C84.9005 59.2 84.9965 59.488 84.9965 59.68C84.9965 59.936 84.5485 60.512 83.6525 61.408C81.9885 63.072 80.2925 63.904 78.5645 63.904C77.9885 63.904 77.3165 63.744 76.5485 63.424C75.5885 63.488 74.3725 62.848 72.9005 61.504C71.4925 60.16 69.5085 57.824 66.9485 54.496C66.9485 54.24 66.5965 53.408 65.8925 52C65.6365 51.424 65.3485 50.912 65.0285 50.464C64.7085 49.952 64.4845 49.6 64.3565 49.408C64.3565 49.152 64.1965 48.832 63.8765 48.448C63.6205 48 63.4285 47.648 63.3005 47.392C62.5965 47.2 62.0205 47.264 61.5725 47.584C61.1885 47.904 60.8045 48.352 60.4205 48.928C60.1005 49.504 59.8445 49.92 59.6525 50.176C59.0125 51.84 58.3725 53.888 57.7325 56.32C57.0925 58.688 56.8685 60.224 57.0605 60.928C57.0605 61.952 56.9005 62.656 56.5805 63.04C56.2605 63.36 55.5885 63.52 54.5645 63.52ZM89.147 60.544C88.955 60.16 88.635 59.776 88.187 59.392C87.803 58.944 87.611 58.656 87.611 58.528C87.611 57.824 87.451 57.28 87.131 56.896C87.003 56.768 86.939 56.48 86.939 56.032C86.939 55.008 87.419 53.28 88.379 50.848C89.403 48.352 90.715 45.664 92.315 42.784C92.699 42.4 93.179 41.728 93.755 40.768C94.395 39.808 94.811 39.264 95.003 39.136C95.003 38.88 95.099 38.656 95.291 38.464C95.483 38.208 95.707 38.08 95.963 38.08V37.504C95.963 36.928 97.019 35.552 99.131 33.376C101.243 31.136 102.971 29.6 104.315 28.768C105.915 27.68 107.547 27.136 109.211 27.136C110.363 27.136 111.355 27.456 112.187 28.096C112.507 28.48 113.979 29.856 116.603 32.224L120.155 35.392L118.427 40.192C117.851 41.92 117.563 43.488 117.563 44.896C117.563 47.328 118.267 49.664 119.675 51.904C119.995 52.608 120.635 53.28 121.595 53.92C122.555 54.56 123.515 54.944 124.475 55.072C125.883 55.328 126.587 56.032 126.587 57.184C126.587 58.464 126.011 59.232 124.859 59.488C124.603 59.552 124.219 59.584 123.707 59.584C119.931 59.584 116.667 56.928 113.915 51.616C113.659 51.232 113.307 50.528 112.859 49.504C112.475 48.48 112.251 47.776 112.187 47.392C111.803 47.904 111.323 48.512 110.747 49.216C110.171 49.92 109.627 50.528 109.115 51.04C102.139 58.016 96.635 61.504 92.603 61.504C91.323 61.504 90.171 61.184 89.147 60.544ZM92.603 55.168C92.603 55.488 92.923 55.584 93.563 55.456C94.267 55.328 95.099 55.008 96.059 54.496C97.083 53.984 98.107 53.312 99.131 52.48C104.635 47.744 108.603 43.616 111.035 40.096L113.147 36.64C112.507 35.296 111.835 34.336 111.131 33.76C110.427 33.12 109.787 32.8 109.211 32.8C107.867 32.8 105.755 34.496 102.875 37.888C99.995 41.216 97.371 45.152 95.003 49.696C94.427 50.784 93.915 51.904 93.467 53.056C93.019 54.144 92.731 54.848 92.603 55.168ZM142.381 63.808C141.485 63.552 140.749 63.264 140.173 62.944C139.597 62.624 138.829 62.016 137.869 61.12C136.717 59.584 135.949 58.176 135.565 56.896C135.245 55.552 135.085 53.44 135.085 50.56C135.085 49.024 135.949 44.8 137.677 37.888C137.549 38.336 137.773 37.408 138.349 35.104C138.541 34.4 138.285 33.952 137.581 33.76C136.877 33.568 135.885 33.472 134.605 33.472C133.517 33.472 132.877 33.408 132.685 33.28C132.493 33.216 132.365 33.12 132.301 32.992C132.301 32.864 132.301 32.768 132.301 32.704C132.301 32.384 132.173 32 131.917 31.552C131.853 31.488 131.821 31.392 131.821 31.264C131.821 30.944 131.981 30.592 132.301 30.208C132.685 29.824 133.133 29.6 133.645 29.536C133.965 29.472 134.701 29.376 135.853 29.248C137.005 29.12 138.093 28.864 139.117 28.48C140.141 28.096 140.941 27.552 141.517 26.848C142.349 24.736 143.405 22.368 144.685 19.744C145.965 17.056 146.829 15.456 147.277 14.944C148.301 14.432 149.005 14.176 149.389 14.176C149.773 14.176 150.093 14.304 150.349 14.56C150.605 14.816 150.957 15.264 151.405 15.904C151.469 16.032 151.629 16.256 151.885 16.576C152.141 16.896 152.269 17.216 152.269 17.536C152.269 18.048 152.013 18.816 151.501 19.84C151.053 20.864 150.125 22.656 148.717 25.216L147.469 27.616C147.661 27.68 148.109 27.712 148.813 27.712C149.517 27.712 150.093 27.68 150.541 27.616C151.949 27.36 153.261 27.232 154.477 27.232C155.117 27.232 155.565 27.264 155.821 27.328C157.293 27.328 158.349 27.616 158.989 28.192C159.693 28.704 160.109 29.6 160.237 30.88C160.365 31.584 160.237 32 159.853 32.128C159.469 32.256 158.381 32.32 156.589 32.32C149.165 32.64 145.421 32.928 145.357 33.184C145.101 33.376 144.621 34.496 143.917 36.544C143.213 38.592 142.605 40.544 142.093 42.4C141.261 46.24 140.845 49.632 140.845 52.576C140.845 55.264 141.229 57.056 141.997 57.952C142.317 58.272 142.925 58.432 143.821 58.432C144.717 58.432 145.677 58.272 146.701 57.952C147.789 57.568 148.685 57.088 149.389 56.512C150.541 55.552 151.501 55.072 152.269 55.072C152.653 55.072 152.941 55.2 153.133 55.456C153.389 55.648 153.517 55.904 153.517 56.224C153.517 56.928 153.133 57.824 152.365 58.912C151.405 60.384 150.125 61.6 148.525 62.56C146.925 63.52 145.389 64 143.917 64C143.213 64 142.701 63.936 142.381 63.808ZM171.379 64.288C168.627 64.288 166.355 63.264 164.562 61.216C162.771 59.168 161.875 56.608 161.875 53.536C161.875 50.464 162.547 47.104 163.891 43.456C165.299 39.744 167.091 36.416 169.267 33.472C171.443 30.528 173.651 28.544 175.891 27.52C177.171 26.816 178.611 26.464 180.211 26.464C181.427 26.464 182.803 26.816 184.339 27.52C185.427 27.968 186.259 28.512 186.835 29.152C187.411 29.792 187.923 30.784 188.371 32.128C188.563 33.28 188.659 34.08 188.659 34.528C188.659 34.912 188.499 35.744 188.179 37.024C187.411 39.392 186.387 41.408 185.107 43.072C183.891 44.672 182.291 46.048 180.307 47.2C179.283 47.84 178.003 48.16 176.467 48.16C175.123 48.16 173.843 47.936 172.627 47.488C171.475 46.976 170.579 46.24 169.939 45.28L169.267 44.512L168.979 45.28C167.635 48.736 166.963 51.68 166.963 54.112C166.963 55.776 167.283 57.12 167.923 58.144C168.371 58.848 169.459 59.2 171.187 59.2C172.467 59.2 173.395 59.072 173.971 58.816C174.931 58.496 175.763 58.112 176.467 57.664C177.235 57.152 177.971 56.64 178.675 56.128L179.059 55.936H178.963C179.731 55.552 180.371 55.2 180.883 54.88C181.395 54.56 181.747 54.336 181.939 54.208C182.067 54.208 182.195 54.176 182.323 54.112C182.451 54.048 182.579 53.92 182.707 53.728C183.283 53.472 183.955 53.568 184.723 54.016C185.491 54.464 185.875 55.04 185.875 55.744C185.747 56.256 185.171 57.088 184.147 58.24C183.123 59.392 182.355 60 181.843 60.064C181.779 60.064 181.555 60.16 181.171 60.352C180.787 60.544 180.531 60.704 180.403 60.832H180.499C179.923 61.6 179.347 61.984 178.771 61.984H178.003C177.747 62.496 176.883 63.008 175.411 63.52C174.003 64.032 172.659 64.288 171.379 64.288ZM175.699 43.168C177.619 43.168 179.379 42.08 180.979 39.904C182.515 37.856 183.283 35.808 183.283 33.76C183.283 32.672 183.059 31.904 182.611 31.456C182.227 31.264 181.875 31.168 181.555 31.168C181.235 31.168 180.691 31.264 179.923 31.456C179.091 31.648 177.811 32.544 176.083 34.144C174.355 35.68 173.075 37.056 172.243 38.272L170.995 40.288C171.507 40.096 171.987 40 172.435 40C172.947 39.936 173.235 39.968 173.299 40.096C173.299 40.992 173.523 41.728 173.971 42.304C174.419 42.88 174.995 43.168 175.699 43.168ZM198.181 61.792C197.925 62.24 197.605 62.464 197.221 62.464C196.837 62.464 196.421 62.336 195.973 62.08C195.589 61.824 195.365 61.664 195.301 61.6C194.341 61.6 193.733 61.088 193.477 60.064C193.413 59.936 193.381 59.648 193.381 59.2C193.381 58.368 193.765 56.736 194.533 54.304L195.205 51.232C195.845 48.416 196.421 46.048 196.933 44.128C197.125 43.808 197.509 42.72 198.085 40.864C198.469 39.456 198.981 38.08 199.621 36.736C200.389 33.856 201.605 31.008 203.269 28.192C203.397 28 203.653 27.744 204.037 27.424C204.421 27.104 204.709 26.944 204.901 26.944C205.285 26.56 205.701 26.368 206.149 26.368C206.597 26.368 207.173 26.656 207.877 27.232C208.517 28 208.837 28.736 208.837 29.44C208.837 30.656 208.037 32.48 206.437 34.912L204.901 38.656C204.773 38.976 204.453 39.744 203.941 40.96C203.429 42.112 203.109 43.168 202.981 44.128C203.813 42.976 205.317 41.312 207.493 39.136C208.773 37.856 209.829 36.928 210.661 36.352C211.493 35.712 212.709 34.88 214.309 33.856C215.461 33.024 216.485 32.416 217.381 32.032C218.277 31.648 219.269 31.456 220.357 31.456C220.933 31.456 221.381 31.488 221.701 31.552C222.597 31.488 223.301 31.936 223.813 32.896C224.325 33.856 224.645 35.104 224.773 36.64C224.005 36.512 223.461 36.448 223.141 36.448C221.861 36.448 220.709 36.704 219.685 37.216C218.725 37.728 217.925 38.24 217.285 38.752C216.645 39.2 216.229 39.488 216.037 39.616C212.581 41.856 209.893 43.968 207.973 45.952C205.989 48.128 204.581 49.728 203.749 50.752C202.981 51.776 202.405 52.8 202.021 53.824C201.829 54.272 201.285 55.616 200.389 57.856C199.493 60.032 198.757 61.344 198.181 61.792ZM243.911 22.912C242.695 22.912 241.447 22.272 240.167 20.992C238.951 19.648 238.343 18.272 238.343 16.864C238.343 16.544 238.727 15.808 239.495 14.656C240.263 13.504 240.647 12.864 240.647 12.736C241.095 12.736 241.479 12.768 241.799 12.832C242.119 12.896 242.503 13.024 242.951 13.216C243.527 14.496 244.423 15.808 245.639 17.152C246.023 17.664 246.375 18.144 246.695 18.592C247.015 19.04 247.175 19.424 247.175 19.744C247.175 20.832 247.111 21.568 246.983 21.952C246.919 22.336 246.663 22.592 246.215 22.72C245.831 22.848 245.063 22.912 243.911 22.912ZM229.799 59.296C229.607 59.296 229.351 59.232 229.031 59.104C228.711 58.976 228.487 58.88 228.359 58.816C228.359 58.624 228.263 58.304 228.071 57.856C227.943 57.344 227.879 57.024 227.879 56.896C227.367 56.64 227.111 56.32 227.111 55.936C227.111 55.616 227.207 55.168 227.399 54.592C228.231 53.12 229.703 49.792 231.815 44.608C233.927 39.36 235.111 36.256 235.367 35.296C235.367 35.04 235.463 34.72 235.655 34.336C235.847 33.952 236.071 33.632 236.327 33.376C236.583 33.12 236.871 32.992 237.191 32.992C237.895 32.992 238.535 33.472 239.111 34.432C239.751 35.392 240.071 36.448 240.071 37.6C240.071 38.368 239.335 40.576 237.863 44.224C236.455 47.808 234.855 51.424 233.063 55.072C232.807 55.584 232.423 56.32 231.911 57.28C231.463 58.24 231.111 58.816 230.855 59.008C230.599 59.2 230.247 59.296 229.799 59.296ZM279.865 59.584C278.585 59.584 277.529 59.328 276.697 58.816C275.865 58.24 275.161 57.312 274.585 56.032C274.009 53.984 273.721 51.936 273.721 49.888C273.721 48.928 273.817 48.256 274.009 47.872C274.265 47.616 274.361 47.072 274.297 46.24C274.297 45.344 274.297 44.704 274.297 44.32C274.233 42.848 273.785 42.112 272.953 42.112C272.377 42.112 271.737 42.336 271.033 42.784C267.449 45.024 264.441 46.944 262.009 48.544C259.577 50.144 257.241 51.936 255.001 53.92C254.105 54.944 253.433 55.84 252.985 56.608C252.537 57.376 252.217 57.92 252.025 58.24C251.833 58.496 251.577 58.624 251.257 58.624C250.873 58.752 250.617 58.816 250.489 58.816C250.169 58.816 249.785 58.656 249.337 58.336C248.889 57.952 248.601 57.696 248.473 57.568C248.217 57.312 247.801 56.896 247.225 56.32C246.649 55.68 246.329 55.232 246.265 54.976C246.265 54.464 246.457 53.28 246.841 51.424C247.289 49.568 247.641 48.384 247.897 47.872C248.089 47.872 248.377 47.488 248.761 46.72C249.145 45.888 249.497 45.248 249.817 44.8C250.009 43.84 250.841 41.632 252.313 38.176C253.209 36.64 253.817 35.36 254.137 34.336C254.521 33.312 254.777 32.032 254.905 30.496V30.304C254.905 30.048 255.001 29.856 255.193 29.728C255.385 29.536 255.577 29.44 255.769 29.44C256.217 29.12 256.633 28.96 257.017 28.96C257.849 28.96 258.681 29.472 259.513 30.496C260.473 31.712 260.953 32.992 260.953 34.336C260.953 36 259.897 38.624 257.785 42.208C257.593 42.656 257.305 43.296 256.921 44.128C256.601 44.96 256.441 45.536 256.441 45.856L261.817 42.208C262.329 41.632 263.705 40.608 265.945 39.136C268.185 37.664 269.753 36.832 270.649 36.64C272.185 35.936 273.145 35.584 273.529 35.584C274.297 35.584 275.321 36.16 276.601 37.312C277.945 38.464 278.745 39.424 279.001 40.192C279.001 40.896 279.065 41.408 279.193 41.728C279.513 43.008 279.673 44.512 279.673 46.24C279.673 47.392 279.577 48.448 279.385 49.408C279.257 50.304 279.065 50.816 278.809 50.944C278.809 51.008 278.841 51.104 278.905 51.232C278.969 51.36 279.097 51.424 279.289 51.424V51.904C278.777 51.904 278.713 52.448 279.097 53.536C279.481 54.624 279.993 55.456 280.633 56.032C281.273 56.672 281.593 57.312 281.593 57.952C281.593 58.72 281.017 59.264 279.865 59.584ZM289.772 60.544C289.58 60.16 289.26 59.776 288.812 59.392C288.428 58.944 288.236 58.656 288.236 58.528C288.236 57.824 288.076 57.28 287.756 56.896C287.628 56.768 287.564 56.48 287.564 56.032C287.564 55.008 288.044 53.28 289.004 50.848C290.028 48.352 291.34 45.664 292.94 42.784C293.324 42.4 293.804 41.728 294.38 40.768C295.02 39.808 295.436 39.264 295.628 39.136C295.628 38.88 295.724 38.656 295.916 38.464C296.108 38.208 296.332 38.08 296.588 38.08V37.504C296.588 36.928 297.644 35.552 299.756 33.376C301.868 31.136 303.596 29.6 304.94 28.768C306.54 27.68 308.172 27.136 309.836 27.136C310.988 27.136 311.98 27.456 312.812 28.096C313.132 28.48 314.604 29.856 317.228 32.224L320.78 35.392L319.052 40.192C318.476 41.92 318.188 43.488 318.188 44.896C318.188 47.328 318.892 49.664 320.3 51.904C320.62 52.608 321.26 53.28 322.22 53.92C323.18 54.56 324.14 54.944 325.1 55.072C326.508 55.328 327.212 56.032 327.212 57.184C327.212 58.464 326.636 59.232 325.484 59.488C325.228 59.552 324.844 59.584 324.332 59.584C320.556 59.584 317.292 56.928 314.54 51.616C314.284 51.232 313.932 50.528 313.484 49.504C313.1 48.48 312.876 47.776 312.812 47.392C312.428 47.904 311.948 48.512 311.372 49.216C310.796 49.92 310.252 50.528 309.74 51.04C302.764 58.016 297.26 61.504 293.228 61.504C291.948 61.504 290.796 61.184 289.772 60.544ZM293.228 55.168C293.228 55.488 293.548 55.584 294.188 55.456C294.892 55.328 295.724 55.008 296.684 54.496C297.708 53.984 298.732 53.312 299.756 52.48C305.26 47.744 309.228 43.616 311.66 40.096L313.772 36.64C313.132 35.296 312.46 34.336 311.756 33.76C311.052 33.12 310.412 32.8 309.836 32.8C308.492 32.8 306.38 34.496 303.5 37.888C300.62 41.216 297.996 45.152 295.628 49.696C295.052 50.784 294.54 51.904 294.092 53.056C293.644 54.144 293.356 54.848 293.228 55.168ZM409.744 6.304C409.872 6.944 409.712 7.52 409.264 8.032C408.88 8.48 407.984 9.088 406.576 9.856C403.696 11.264 402.064 12.32 401.68 13.024C401.36 13.28 400.624 13.824 399.472 14.656C398.384 15.488 397.008 16.512 395.344 17.728C392.848 19.392 390.672 20.96 388.816 22.432C387.024 23.904 385.84 25.024 385.264 25.792C385.072 25.792 384.816 25.888 384.496 26.08C384.24 26.272 384.016 26.336 383.824 26.272C383.696 26.336 383.408 26.528 382.96 26.848C382.512 27.168 382.192 27.456 382 27.712C381.808 28.224 381.488 28.736 381.04 29.248C380.656 29.696 380.176 29.888 379.6 29.824C378.384 30.464 375.984 32.224 372.4 35.104C372.848 40.032 374.096 44.352 376.144 48.064C378 52.16 379.888 55.168 381.808 57.088C383.152 58.56 384.4 59.712 385.552 60.544C386.768 61.376 387.696 61.792 388.336 61.792C388.912 61.984 389.712 62.432 390.736 63.136C391.76 63.84 392.304 64.416 392.368 64.864C392.432 64.992 392.464 65.248 392.464 65.632C392.464 66.592 392.304 67.296 391.984 67.744C391.728 68.192 391.504 68.512 391.312 68.704C391.12 68.96 390.8 69.088 390.352 69.088C389.648 69.088 388.784 68.832 387.76 68.32C386.736 68.384 384.976 67.424 382.48 65.44C379.984 63.456 378.064 61.632 376.72 59.968C374.992 57.472 373.488 55.2 372.208 53.152C370.992 51.104 370.064 48.864 369.424 46.432C369.168 45.28 368.688 43.552 367.984 41.248C367.536 40.032 367.28 39.168 367.216 38.656V36.832L366.064 39.712C366 39.904 365.584 40.96 364.816 42.88C364.112 44.8 363.088 48.192 361.744 53.056L360.208 58.048C358.736 62.656 357.744 65.568 357.232 66.784C356.784 68 356.304 68.608 355.792 68.608C355.536 68.608 355.184 68.448 354.736 68.128C354.352 67.872 354.064 67.68 353.872 67.552C353.36 67.232 353.008 66.944 352.816 66.688C352.624 66.432 352.528 66.112 352.528 65.728C352.528 65.28 352.688 64.48 353.008 63.328C352.944 62.496 353.008 61.696 353.2 60.928C353.392 60.16 353.488 59.712 353.488 59.584C353.936 59.584 354.16 59.072 354.16 58.048C354.16 57.536 354.448 56.416 355.024 54.688L355.888 51.712L357.04 48.928C357.744 47.136 358.096 46.176 358.096 46.048C358.096 45.216 358.512 44.16 359.344 42.88C359.6 42.112 359.824 41.28 360.016 40.384C360.208 39.488 360.304 38.752 360.304 38.176C360.432 37.856 360.784 37.12 361.36 35.968C361.936 34.816 362.352 33.664 362.608 32.512C362.672 32.192 362.768 31.84 362.896 31.456C363.088 31.072 363.28 30.592 363.472 30.016L366.64 21.376L368.08 18.112C368.208 17.792 368.624 16.8 369.328 15.136C370.096 13.472 370.608 12.64 370.864 12.64V11.584C370.864 11.328 371.216 10.496 371.92 9.088L373.072 6.784C373.584 5.952 373.968 5.152 374.224 4.384C374.544 3.552 374.736 3.008 374.8 2.752C374.864 2.624 374.992 2.4 375.184 2.08C375.376 1.76 375.6 1.472 375.856 1.216C376.56 0.703995 377.2 0.447994 377.776 0.447994C378.672 0.447994 379.44 1.088 380.08 2.368C380.528 3.264 380.752 4.064 380.752 4.768C380.752 5.408 380.464 6.17599 379.888 7.07199C377.712 11.744 375.504 16.544 373.264 21.472C371.088 26.4 370 29.248 370 30.016L373.264 27.616C374.928 25.952 377.584 23.744 381.232 20.992L393.04 11.392C394.832 10.496 396.944 9.088 399.376 7.168C400.016 6.784 400.528 6.432 400.912 6.112C401.296 5.792 401.616 5.568 401.872 5.44C402.256 5.12 403.024 4.576 404.176 3.808C405.328 2.976 406.064 2.592 406.384 2.65599C407.088 2.33599 407.856 2.656 408.688 3.616C409.52 4.576 409.872 5.472 409.744 6.304ZM420.785 63.808C420.337 64.064 419.729 63.968 418.961 63.52C418.257 63.072 417.553 62.4 416.849 61.504C416.337 60.672 416.017 59.808 415.889 58.912C415.825 58.016 415.793 56.16 415.793 53.344C415.793 52.704 415.665 52.384 415.409 52.384C415.217 52.384 414.769 52.704 414.065 53.344C413.361 53.92 412.497 54.72 411.473 55.744C409.809 57.344 408.273 58.592 406.865 59.488C405.457 60.384 404.305 60.8 403.409 60.736C402.705 60.736 401.937 60.256 401.105 59.296C400.337 58.336 399.729 57.216 399.281 55.936C399.089 55.168 398.993 54.272 398.993 53.248C398.993 50.56 399.537 47.296 400.625 43.456C401.777 39.616 403.089 36.32 404.561 33.568C406.097 30.752 407.441 29.344 408.593 29.344C409.553 29.344 410.449 30.4 411.281 32.512C411.473 32.896 411.569 33.216 411.569 33.472C411.569 33.92 411.313 34.368 410.801 34.816C409.841 36.032 408.721 38.208 407.441 41.344C406.161 44.48 405.137 47.392 404.369 50.08C403.665 52.768 403.537 54.112 403.985 54.112C404.881 54.112 405.937 53.76 407.153 53.056C408.369 52.352 409.585 51.424 410.801 50.272C412.017 49.056 413.105 47.776 414.065 46.432C415.025 45.024 416.209 43.136 417.617 40.768C420.305 36.48 421.777 33.984 422.033 33.28C422.993 31.488 423.665 30.336 424.049 29.824C424.497 29.248 425.041 28.864 425.681 28.672H427.025C427.409 28.736 427.857 29.024 428.369 29.536C428.817 29.728 429.073 29.952 429.137 30.208C429.265 30.4 429.329 30.688 429.329 31.072L427.793 34.624L426.929 36.64C426.865 36.896 426.513 37.632 425.873 38.848C424.401 42.112 423.281 44.736 422.513 46.72C421.745 48.704 421.169 50.752 420.785 52.864C420.721 53.184 420.689 53.728 420.689 54.496C420.689 56.416 420.881 57.76 421.265 58.528C421.841 59.68 422.417 60.512 422.993 61.024C423.313 61.28 423.473 61.536 423.473 61.792C423.473 62.24 423.089 62.688 422.321 63.136C421.617 63.584 421.105 63.808 420.785 63.808ZM439.42 61.024C439.036 61.024 438.492 60.896 437.788 60.64C437.084 60.384 436.636 60.16 436.444 59.968C435.804 59.328 435.484 58.592 435.484 57.76C435.484 56.352 436.188 54.656 437.596 52.672C437.98 51.904 438.94 49.248 440.476 44.704L442.396 39.424C442.524 38.336 442.46 37.568 442.204 37.12C441.948 36.608 441.404 36.32 440.572 36.256H439.996C439.42 36.256 439.036 36.16 438.844 35.968C438.652 35.712 438.556 35.104 438.556 34.144C438.62 33.376 438.812 32.8 439.132 32.416C439.452 32.032 439.996 31.584 440.764 31.072C441.788 30.56 442.844 30.304 443.932 30.304C444.956 30.304 445.724 30.528 446.236 30.976C446.62 31.232 446.876 31.808 447.004 32.704C447.196 33.536 447.292 34.432 447.292 35.392C447.356 36.288 447.42 36.928 447.484 37.312C447.804 36.992 448.572 36.352 449.788 35.392C451.068 34.368 452.156 33.408 453.052 32.512C454.14 31.744 455.388 31.008 456.796 30.304C458.204 29.6 459.196 29.248 459.772 29.248C460.476 29.248 461.18 29.44 461.884 29.824C462.588 30.144 463.068 30.56 463.324 31.072C463.9 32.096 464.188 33.024 464.188 33.856C464.188 34.752 463.836 35.648 463.132 36.544C462.556 37.248 461.82 37.792 460.924 38.176C460.028 38.56 459.388 38.752 459.004 38.752C458.62 38.752 458.14 38.464 457.564 37.888C456.988 37.312 456.668 36.832 456.604 36.448C456.604 36.192 455.772 36.704 454.108 37.984C452.508 39.2 451.26 40.256 450.364 41.152C449.34 42.368 448.284 43.968 447.196 45.952C446.172 47.936 444.636 50.944 442.588 54.976C442.396 55.424 441.948 56.512 441.244 58.24C440.924 59.264 440.636 60 440.38 60.448C440.124 60.832 439.804 61.024 439.42 61.024ZM480.158 82.336C479.198 82.72 478.174 82.912 477.086 82.912C475.55 82.912 473.982 82.56 472.382 81.856C470.846 81.152 469.47 80.192 468.254 78.976C467.55 78.336 466.878 77.184 466.238 75.52C465.598 73.92 465.47 73.024 465.854 72.832C466.11 72.704 466.366 72.64 466.622 72.64C467.134 72.64 467.614 72.736 468.062 72.928C468.574 73.12 468.83 73.344 468.83 73.6C469.342 74.048 470.046 74.592 470.942 75.232C471.902 75.872 472.606 76.224 473.054 76.288C474.206 76.672 475.102 76.864 475.742 76.864C476.446 76.864 477.118 76.64 477.758 76.192C478.718 75.36 479.486 74.304 480.062 73.024C480.702 71.808 481.342 70.016 481.982 67.648L482.27 66.4C483.934 58.912 485.054 54.272 485.63 52.48C485.886 51.456 486.014 50.624 486.014 49.984C486.014 49.472 485.918 49.216 485.726 49.216C485.598 49.216 485.374 49.408 485.054 49.792C484.478 49.984 483.678 50.336 482.654 50.848C480.478 51.936 479.07 52.544 478.43 52.672L476.318 52.768C476.062 52.896 475.774 52.96 475.454 52.96C474.75 52.96 473.886 52.768 472.862 52.384C471.838 51.936 470.91 51.392 470.078 50.752C469.182 49.6 468.638 48.8 468.446 48.352C468.318 47.904 468.254 46.912 468.254 45.376C468.19 44.352 468.67 42.88 469.694 40.96C470.782 38.976 472.094 37.12 473.63 35.392C475.614 33.408 478.206 31.552 481.406 29.824C484.606 28.096 487.134 27.264 488.99 27.328C489.246 27.392 489.726 27.456 490.43 27.52C491.198 27.584 491.966 27.904 492.734 28.48C493.566 28.928 494.174 29.408 494.558 29.92C494.942 30.432 495.486 31.424 496.19 32.896C496.958 34.88 497.342 36.832 497.342 38.752C497.342 40.736 496.862 42.208 495.902 43.168C495.71 43.168 495.422 43.232 495.038 43.36C494.654 43.488 494.334 43.552 494.078 43.552C493.886 43.552 493.63 43.776 493.31 44.224C493.054 44.672 492.894 45.184 492.83 45.76C492.702 46.592 492.51 47.328 492.254 47.968C491.934 48.736 491.774 49.184 491.774 49.312C491.774 49.504 491.71 49.696 491.582 49.888C491.518 50.016 491.454 50.144 491.39 50.272C490.878 51.168 490.622 52.064 490.622 52.96L490.238 54.016C489.726 55.68 489.47 56.576 489.47 56.704L489.086 58.624C488.958 58.944 488.766 59.488 488.51 60.256C488.254 60.96 487.998 62.4 487.742 64.576C485.374 74.688 482.846 80.608 480.158 82.336ZM473.534 47.488C474.494 47.872 475.454 48.064 476.414 48.064C478.846 48.064 481.662 46.784 484.862 44.224C487.87 41.984 489.822 39.232 490.718 35.968C490.974 35.392 491.102 34.848 491.102 34.336C491.102 33.632 490.654 33.248 489.758 33.184C489.566 33.12 489.246 33.088 488.798 33.088C486.558 33.088 483.806 34.144 480.542 36.256C480.158 36.832 479.614 37.376 478.91 37.888C478.27 38.336 477.854 38.624 477.662 38.752C477.534 39.136 477.278 39.456 476.894 39.712C475.87 40.544 474.942 41.952 474.11 43.936C473.278 45.92 473.086 47.104 473.534 47.488ZM508.427 60.832C507.275 61.088 506.027 60.736 504.683 59.776C503.339 58.816 502.539 57.76 502.283 56.608C502.219 56.352 502.187 55.936 502.187 55.36C502.187 52.992 503.083 49.952 504.875 46.24C506.731 42.464 508.971 39.008 511.595 35.872C514.219 32.672 516.619 30.656 518.795 29.824C520.139 29.12 521.003 28.768 521.387 28.768C521.771 28.768 522.635 29.12 523.979 29.824C524.875 30.08 525.547 30.368 525.995 30.688C526.443 31.008 527.019 31.648 527.723 32.608C528.555 34.272 529.163 36.32 529.547 38.752C529.931 40.096 530.123 41.056 530.123 41.632C530.123 42.144 529.931 42.592 529.547 42.976C529.483 43.04 529.355 43.168 529.163 43.36C529.035 43.552 528.971 43.712 528.971 43.84C528.971 43.904 529.035 43.936 529.163 43.936C529.163 44 529.131 44.16 529.067 44.416C529.003 44.608 528.875 44.896 528.683 45.28C527.915 47.712 527.531 49.792 527.531 51.52C527.531 52.096 527.595 52.704 527.723 53.344C528.363 55.008 529.451 55.84 530.987 55.84C532.267 55.84 533.483 55.264 534.635 54.112C535.659 53.408 536.395 52.928 536.843 52.672C537.355 52.352 537.611 52.416 537.611 52.864C537.675 52.928 537.803 53.024 537.995 53.152C538.187 53.28 538.379 53.344 538.571 53.344C539.019 53.344 539.243 53.632 539.243 54.208C539.243 54.784 539.019 55.424 538.571 56.128C538.123 56.576 537.771 56.96 537.515 57.28C537.259 57.6 537.131 57.856 537.131 58.048L535.691 59.392C534.475 60.096 533.035 60.448 531.371 60.448C529.643 60.448 528.267 60.096 527.243 59.392C526.347 58.752 525.483 57.824 524.651 56.608C523.819 55.392 523.275 54.304 523.019 53.344L522.539 52.384L519.755 54.208C519.115 54.848 518.379 55.52 517.547 56.224C516.715 56.864 516.171 57.312 515.915 57.568C515.403 58.208 514.955 58.528 514.571 58.528H513.611C513.611 58.976 512.971 59.488 511.691 60.064C510.475 60.576 509.387 60.832 508.427 60.832ZM507.467 55.648C508.171 55.648 509.963 54.656 512.843 52.672C515.723 50.624 517.547 49.12 518.315 48.16L521.099 45.28C522.123 44.128 522.923 42.816 523.499 41.344C524.139 39.872 524.459 38.528 524.459 37.312C524.459 36.224 524.299 35.456 523.979 35.008C523.723 34.24 523.339 33.856 522.827 33.856C522.571 33.856 521.835 34.08 520.619 34.528C519.403 35.296 517.675 37.056 515.435 39.808C513.259 42.56 511.307 45.408 509.579 48.352C507.851 51.232 506.987 53.344 506.987 54.688C506.987 54.88 507.051 55.072 507.179 55.264C507.307 55.456 507.403 55.584 507.467 55.648ZM575.834 59.584C574.554 59.584 573.498 59.328 572.666 58.816C571.834 58.24 571.13 57.312 570.554 56.032C569.978 53.984 569.69 51.936 569.69 49.888C569.69 48.928 569.786 48.256 569.978 47.872C570.234 47.616 570.33 47.072 570.266 46.24C570.266 45.344 570.266 44.704 570.266 44.32C570.202 42.848 569.754 42.112 568.922 42.112C568.346 42.112 567.706 42.336 567.002 42.784C563.418 45.024 560.41 46.944 557.978 48.544C555.546 50.144 553.21 51.936 550.97 53.92C550.074 54.944 549.402 55.84 548.954 56.608C548.506 57.376 548.186 57.92 547.994 58.24C547.802 58.496 547.546 58.624 547.226 58.624C546.842 58.752 546.586 58.816 546.458 58.816C546.138 58.816 545.754 58.656 545.306 58.336C544.858 57.952 544.57 57.696 544.442 57.568C544.186 57.312 543.77 56.896 543.194 56.32C542.618 55.68 542.298 55.232 542.234 54.976C542.234 54.464 542.426 53.28 542.81 51.424C543.258 49.568 543.61 48.384 543.866 47.872C544.058 47.872 544.346 47.488 544.73 46.72C545.114 45.888 545.466 45.248 545.786 44.8C545.978 43.84 546.81 41.632 548.282 38.176C549.178 36.64 549.786 35.36 550.106 34.336C550.49 33.312 550.746 32.032 550.874 30.496V30.304C550.874 30.048 550.97 29.856 551.162 29.728C551.354 29.536 551.546 29.44 551.738 29.44C552.186 29.12 552.602 28.96 552.986 28.96C553.818 28.96 554.65 29.472 555.482 30.496C556.442 31.712 556.922 32.992 556.922 34.336C556.922 36 555.866 38.624 553.754 42.208C553.562 42.656 553.274 43.296 552.89 44.128C552.57 44.96 552.41 45.536 552.41 45.856L557.786 42.208C558.298 41.632 559.674 40.608 561.914 39.136C564.154 37.664 565.722 36.832 566.618 36.64C568.154 35.936 569.114 35.584 569.498 35.584C570.266 35.584 571.29 36.16 572.57 37.312C573.914 38.464 574.714 39.424 574.97 40.192C574.97 40.896 575.034 41.408 575.162 41.728C575.482 43.008 575.642 44.512 575.642 46.24C575.642 47.392 575.546 48.448 575.354 49.408C575.226 50.304 575.034 50.816 574.778 50.944C574.778 51.008 574.81 51.104 574.874 51.232C574.938 51.36 575.066 51.424 575.258 51.424V51.904C574.746 51.904 574.682 52.448 575.066 53.536C575.45 54.624 575.962 55.456 576.602 56.032C577.242 56.672 577.562 57.312 577.562 57.952C577.562 58.72 576.986 59.264 575.834 59.584Z" fill="#4285F4"/>
</svg>
